<?xml version="1.0" encoding="utf-8"?>
<!-- Generator: Adobe Illustrator 17.0.0, SVG Export Plug-In . SVG Version: 6.00 Build 0)  -->
<!DOCTYPE svg PUBLIC "-//W3C//DTD SVG 1.1//EN" "http://www.w3.org/Graphics/SVG/1.1/DTD/svg11.dtd">
<svg version="1.1" id="Слой_1" xmlns="http://www.w3.org/2000/svg" xmlns:xlink="http://www.w3.org/1999/xlink" x="0px" y="0px"
	 width="74.788px" height="74.788px" viewBox="0 0 74.788 74.788" enable-background="new 0 0 74.788 74.788" xml:space="preserve">
<path fill="none" stroke="#EF7F1A" stroke-width="2" stroke-linejoin="round" stroke-miterlimit="10" d="M20.927,61.747
	c-5.103,0-12.436,0-12.436,0s6.016-2.375,6.016-8.083c0-3.785,2.716-3.917,5.186-3.917h0.415c2.973,0,5.382,2.25,5.382,5.222v0
	C25.491,57.626,26.03,61.747,20.927,61.747z"/>
<path fill="none" stroke="#EF7F1A" stroke-width="2" stroke-linejoin="round" stroke-miterlimit="10" d="M64.735,11.505
	c-2.343-2.343-6.142-2.343-8.485,0l-2.828,2.828L21.33,49.89c2.296,0.503,4.013,2.393,4.134,4.814l0.543,0.543l35.899-32.429
	l2.828-2.828C67.078,17.647,67.078,13.848,64.735,11.505z"/>
<polygon fill="none" stroke="#EF7F1A" stroke-width="2" stroke-linejoin="round" stroke-miterlimit="10" points="33.002,48.929 
	37.461,44.901 31.349,38.79 27.323,43.249 "/>
</svg>
