<?xml version="1.0" encoding="utf-8"?>
<!-- Generator: Adobe Illustrator 16.0.0, SVG Export Plug-In . SVG Version: 6.00 Build 0)  -->
<!DOCTYPE svg PUBLIC "-//W3C//DTD SVG 1.1//EN" "http://www.w3.org/Graphics/SVG/1.1/DTD/svg11.dtd">
<svg version="1.1" id="Layer_1" xmlns="http://www.w3.org/2000/svg" xmlns:xlink="http://www.w3.org/1999/xlink" x="0px" y="0px"
	 width="74.789px" height="74.789px" viewBox="0 0 74.789 74.789" enable-background="new 0 0 74.789 74.789" xml:space="preserve">
<g id="Слой_5">
	<path fill="none" stroke="#EF7F1A" stroke-width="2" stroke-linecap="round" stroke-miterlimit="10" d="M16,28.876l-0.447-0.247
		c-8.738-4.834-8.738-13.919,0-18.753L16,9.629l0.447,0.247c8.738,4.834,8.738,13.919,0,18.753L16,28.876z"/>
	
		<line fill="none" stroke="#EF7F1A" stroke-width="2" stroke-linecap="round" stroke-miterlimit="10" x1="16" y1="22.876" x2="16" y2="38.876"/>
	
		<line fill="none" stroke="#EF7F1A" stroke-width="2" stroke-linecap="round" stroke-miterlimit="10" x1="16" y1="22.876" x2="13" y2="19.876"/>
	
		<line fill="none" stroke="#EF7F1A" stroke-width="2" stroke-linecap="round" stroke-miterlimit="10" x1="16" y1="22.876" x2="19" y2="19.876"/>
	
		<line fill="none" stroke="#EF7F1A" stroke-width="2" stroke-linecap="round" stroke-miterlimit="10" x1="16" y1="22.876" x2="16" y2="17.876"/>
	<path fill="none" stroke="#EF7F1A" stroke-width="2" stroke-linecap="round" stroke-miterlimit="10" d="M27,54.125l-0.447-0.248
		c-8.738-4.834-8.738-13.918,0-18.752L27,34.876l0.447,0.247c8.738,4.833,8.738,13.919,0,18.753L27,54.125z"/>
	
		<line fill="none" stroke="#EF7F1A" stroke-width="2" stroke-linecap="round" stroke-miterlimit="10" x1="27" y1="48.125" x2="27" y2="64.125"/>
	
		<line fill="none" stroke="#EF7F1A" stroke-width="2" stroke-linecap="round" stroke-miterlimit="10" x1="27" y1="48.125" x2="24" y2="45.125"/>
	
		<line fill="none" stroke="#EF7F1A" stroke-width="2" stroke-linecap="round" stroke-miterlimit="10" x1="27" y1="48.125" x2="30" y2="45.125"/>
	
		<line fill="none" stroke="#EF7F1A" stroke-width="2" stroke-linecap="round" stroke-miterlimit="10" x1="27" y1="48.125" x2="27" y2="43.125"/>
	<path fill="none" stroke="#EF7F1A" stroke-width="2" stroke-linecap="round" stroke-miterlimit="10" d="M49,54.125l-0.446-0.248
		c-8.738-4.834-8.738-13.918,0-18.752L49,34.876l0.447,0.247c8.738,4.833,8.738,13.919,0,18.753L49,54.125z"/>
	
		<line fill="none" stroke="#EF7F1A" stroke-width="2" stroke-linecap="round" stroke-miterlimit="10" x1="49" y1="48.125" x2="49" y2="64.125"/>
	
		<line fill="none" stroke="#EF7F1A" stroke-width="2" stroke-linecap="round" stroke-miterlimit="10" x1="49" y1="48.125" x2="46" y2="45.125"/>
	
		<line fill="none" stroke="#EF7F1A" stroke-width="2" stroke-linecap="round" stroke-miterlimit="10" x1="49" y1="48.125" x2="52" y2="45.125"/>
	
		<line fill="none" stroke="#EF7F1A" stroke-width="2" stroke-linecap="round" stroke-miterlimit="10" x1="49" y1="48.125" x2="49" y2="43.125"/>
	<path fill="none" stroke="#EF7F1A" stroke-width="2" stroke-linecap="round" stroke-miterlimit="10" d="M60,28.876l-0.446-0.247
		c-8.738-4.834-8.738-13.919,0-18.753L60,9.629l0.447,0.247c8.738,4.834,8.738,13.919,0,18.753L60,28.876z"/>
	
		<line fill="none" stroke="#EF7F1A" stroke-width="2" stroke-linecap="round" stroke-miterlimit="10" x1="60" y1="22.876" x2="60" y2="38.876"/>
	
		<line fill="none" stroke="#EF7F1A" stroke-width="2" stroke-linecap="round" stroke-miterlimit="10" x1="60" y1="22.876" x2="57" y2="19.876"/>
	
		<line fill="none" stroke="#EF7F1A" stroke-width="2" stroke-linecap="round" stroke-miterlimit="10" x1="60" y1="22.876" x2="63" y2="19.876"/>
	
		<line fill="none" stroke="#EF7F1A" stroke-width="2" stroke-linecap="round" stroke-miterlimit="10" x1="60" y1="22.876" x2="60" y2="17.876"/>
	<path fill="none" stroke="#EF7F1A" stroke-width="2" stroke-linecap="round" stroke-miterlimit="10" d="M38,28.876l-0.446-0.247
		c-8.738-4.834-8.738-13.919,0-18.753L38,9.629l0.447,0.247c8.738,4.834,8.738,13.919,0,18.753L38,28.876z"/>
	
		<line fill="none" stroke="#EF7F1A" stroke-width="2" stroke-linecap="round" stroke-miterlimit="10" x1="38" y1="22.876" x2="38" y2="38.876"/>
	
		<line fill="none" stroke="#EF7F1A" stroke-width="2" stroke-linecap="round" stroke-miterlimit="10" x1="38" y1="22.876" x2="35" y2="19.876"/>
	
		<line fill="none" stroke="#EF7F1A" stroke-width="2" stroke-linecap="round" stroke-miterlimit="10" x1="38" y1="22.876" x2="41" y2="19.876"/>
	
		<line fill="none" stroke="#EF7F1A" stroke-width="2" stroke-linecap="round" stroke-miterlimit="10" x1="38" y1="22.876" x2="38" y2="17.876"/>
</g>
</svg>
