<?xml version="1.0" encoding="utf-8"?>
<!-- Generator: Adobe Illustrator 16.0.0, SVG Export Plug-In . SVG Version: 6.00 Build 0)  -->
<!DOCTYPE svg PUBLIC "-//W3C//DTD SVG 1.1//EN" "http://www.w3.org/Graphics/SVG/1.1/DTD/svg11.dtd">
<svg version="1.1" id="Layer_1" xmlns="http://www.w3.org/2000/svg" xmlns:xlink="http://www.w3.org/1999/xlink" x="0px" y="0px"
	 width="74.789px" height="74.789px" viewBox="0 0 74.789 74.789" enable-background="new 0 0 74.789 74.789" xml:space="preserve">
<g id="Слой_1" display="none">
	<path display="inline" fill="none" stroke="#EF7F1A" stroke-width="2" stroke-linejoin="round" stroke-miterlimit="10" d="
		M20.927,61.748c-5.103,0-12.436,0-12.436,0s6.016-2.375,6.016-8.084c0-3.785,2.716-3.916,5.186-3.916h0.415
		c2.973,0,5.382,2.25,5.382,5.221l0,0C25.491,57.626,26.03,61.748,20.927,61.748z"/>
	<path display="inline" fill="none" stroke="#EF7F1A" stroke-width="2" stroke-linejoin="round" stroke-miterlimit="10" d="
		M64.735,11.505c-2.343-2.343-6.142-2.343-8.485,0l-2.828,2.828L21.33,49.89c2.296,0.503,4.013,2.393,4.134,4.814l0.543,0.543
		l35.899-32.43l2.828-2.828C67.078,17.647,67.078,13.848,64.735,11.505z"/>
	<polygon display="inline" fill="none" stroke="#EF7F1A" stroke-width="2" stroke-linejoin="round" stroke-miterlimit="10" points="
		33.002,48.929 37.461,44.901 31.349,38.791 27.323,43.25 	"/>
</g>
<g id="Слой_2" display="none">
	
		<polygon display="inline" fill="none" stroke="#EF7F1A" stroke-width="2" stroke-linecap="round" stroke-linejoin="round" stroke-miterlimit="10" points="
		38,65 12,52 12,20 38,33 	"/>
	
		<polygon display="inline" fill="none" stroke="#EF7F1A" stroke-width="2" stroke-linecap="round" stroke-linejoin="round" stroke-miterlimit="10" points="
		38,65 64,52 64,20 38,33 	"/>
	
		<polygon display="inline" fill="none" stroke="#EF7F1A" stroke-width="2" stroke-linecap="round" stroke-linejoin="round" stroke-miterlimit="10" points="
		12,20 37,7 64,20 38,33 	"/>
	<circle display="inline" fill="#EF7F1A" cx="24" cy="33" r="1"/>
	<circle display="inline" fill="#EF7F1A" cx="15" cy="24" r="1"/>
	<circle display="inline" fill="#EF7F1A" cx="18" cy="27" r="1"/>
	<circle display="inline" fill="#EF7F1A" cx="24" cy="27" r="1"/>
	<circle display="inline" fill="#EF7F1A" cx="15" cy="30" r="1"/>
	<circle display="inline" fill="#EF7F1A" cx="18" cy="33" r="1"/>
	<circle display="inline" fill="#EF7F1A" cx="21" cy="30" r="1"/>
	<circle display="inline" fill="#EF7F1A" cx="27" cy="30" r="1"/>
	<circle display="inline" fill="#EF7F1A" cx="30" cy="33" r="1"/>
	<circle display="inline" fill="#EF7F1A" cx="36" cy="33" r="1"/>
	<circle display="inline" fill="#EF7F1A" cx="24" cy="45" r="1"/>
	<circle display="inline" fill="#EF7F1A" cx="15" cy="36" r="1"/>
	<circle display="inline" fill="#EF7F1A" cx="18" cy="39" r="1"/>
	<circle display="inline" fill="#EF7F1A" cx="24" cy="39" r="1"/>
	<circle display="inline" fill="#EF7F1A" cx="21" cy="36" r="1"/>
	<circle display="inline" fill="#EF7F1A" cx="15" cy="42" r="1"/>
	<circle display="inline" fill="#EF7F1A" cx="18" cy="45" r="1"/>
	<circle display="inline" fill="#EF7F1A" cx="21" cy="42" r="1"/>
	<circle display="inline" fill="#EF7F1A" cx="27" cy="36" r="1"/>
	<circle display="inline" fill="#EF7F1A" cx="27" cy="42" r="1"/>
	<circle display="inline" fill="#EF7F1A" cx="30" cy="45" r="1"/>
	<circle display="inline" fill="#EF7F1A" cx="30" cy="39" r="1"/>
	<circle display="inline" fill="#EF7F1A" cx="33" cy="36" r="1"/>
	<circle display="inline" fill="#EF7F1A" cx="33" cy="42" r="1"/>
	<circle display="inline" fill="#EF7F1A" cx="36" cy="45" r="1"/>
	<circle display="inline" fill="#EF7F1A" cx="36" cy="39" r="1"/>
	<circle display="inline" fill="#EF7F1A" cx="24" cy="57" r="1"/>
	<circle display="inline" fill="#EF7F1A" cx="15" cy="48" r="1"/>
	<circle display="inline" fill="#EF7F1A" cx="18" cy="51" r="1"/>
	<circle display="inline" fill="#EF7F1A" cx="24" cy="51" r="1"/>
	<circle display="inline" fill="#EF7F1A" cx="21" cy="48" r="1"/>
	<circle display="inline" fill="#EF7F1A" cx="21" cy="54" r="1"/>
	<circle display="inline" fill="#EF7F1A" cx="27" cy="48" r="1"/>
	<circle display="inline" fill="#EF7F1A" cx="27" cy="54" r="1"/>
	<circle display="inline" fill="#EF7F1A" cx="30" cy="57" r="1"/>
	<circle display="inline" fill="#EF7F1A" cx="30" cy="51" r="1"/>
	<circle display="inline" fill="#EF7F1A" cx="33" cy="48" r="1"/>
	<circle display="inline" fill="#EF7F1A" cx="33" cy="54" r="1"/>
	<circle display="inline" fill="#EF7F1A" cx="36" cy="57" r="1"/>
	<circle display="inline" fill="#EF7F1A" cx="36" cy="51" r="1"/>
	<circle display="inline" fill="#EF7F1A" cx="33" cy="60" r="1"/>
	<circle display="inline" fill="#EF7F1A" cx="36" cy="63" r="1"/>
</g>
<g id="Слой_3" display="none">
	
		<polygon display="inline" fill="none" stroke="#EF7F1A" stroke-width="2" stroke-linecap="round" stroke-linejoin="round" stroke-miterlimit="10" points="
		27.594,60.464 12.745,64 16.281,49.151 52.343,13.088 63.658,24.402 	"/>
	
		<line display="inline" fill="none" stroke="#EF7F1A" stroke-width="2" stroke-linecap="round" stroke-linejoin="round" stroke-miterlimit="10" x1="16.281" y1="49.151" x2="22.645" y2="48.444"/>
	
		<line display="inline" fill="none" stroke="#EF7F1A" stroke-width="2" stroke-linecap="round" stroke-linejoin="round" stroke-miterlimit="10" x1="21.938" y1="54.808" x2="22.645" y2="48.444"/>
	
		<line display="inline" fill="none" stroke="#EF7F1A" stroke-width="2" stroke-linecap="round" stroke-linejoin="round" stroke-miterlimit="10" x1="21.938" y1="54.808" x2="28.302" y2="54.101"/>
	
		<line display="inline" fill="none" stroke="#EF7F1A" stroke-width="2" stroke-linecap="round" stroke-linejoin="round" stroke-miterlimit="10" x1="27.594" y1="60.464" x2="28.302" y2="54.101"/>
	
		<line display="inline" fill="none" stroke="#EF7F1A" stroke-width="2" stroke-linecap="round" stroke-linejoin="round" stroke-miterlimit="10" x1="21.938" y1="54.808" x2="28.302" y2="54.101"/>
	
		<line display="inline" fill="none" stroke="#EF7F1A" stroke-width="2" stroke-linecap="round" stroke-linejoin="round" stroke-miterlimit="10" x1="12.745" y1="64" x2="16" y2="60.746"/>
	
		<path display="inline" fill="none" stroke="#EF7F1A" stroke-width="2" stroke-linecap="round" stroke-linejoin="round" stroke-miterlimit="10" d="
		M52.343,13.088c3.123-3.124,8.189-3.124,11.314,0c3.123,3.124,3.123,8.19,0,11.314"/>
	
		<line display="inline" fill="none" stroke="#EF7F1A" stroke-width="2" stroke-linecap="round" stroke-linejoin="round" stroke-miterlimit="10" x1="46.686" y1="18.745" x2="58" y2="30.059"/>
	
		<line display="inline" fill="none" stroke="#EF7F1A" stroke-width="2" stroke-linecap="round" stroke-linejoin="round" stroke-miterlimit="10" x1="49.515" y1="15.917" x2="60.828" y2="27.231"/>
	
		<line display="inline" fill="none" stroke="#EF7F1A" stroke-width="2" stroke-linecap="round" stroke-linejoin="round" stroke-miterlimit="10" x1="22.645" y1="48.444" x2="45.272" y2="25.816"/>
	
		<line display="inline" fill="none" stroke="#EF7F1A" stroke-width="2" stroke-linecap="round" stroke-linejoin="round" stroke-miterlimit="10" x1="28.302" y1="54.101" x2="50.929" y2="31.473"/>
</g>
<g>
	<path fill="#EF7F1A" d="M38,41.471V23c0-0.552-0.447-1-1-1s-1,0.448-1,1v18.488L18.415,54.189
		c-0.448,0.323-0.549,0.948-0.225,1.396c0.323,0.447,0.949,0.549,1.396,0.225l17.43-12.588l18.419,12.603
		C55.608,55.943,55.804,56,55.999,56c0.319,0,0.633-0.152,0.826-0.436c0.312-0.455,0.195-1.078-0.261-1.39L38,41.471z"/>
	<path fill="#EF7F1A" d="M36,15.414V18c0,0.552,0.448,1,1,1s1-0.448,1-1v-2.585l2.707-2.708c0.391-0.391,0.391-1.024,0-1.414
		c-0.391-0.391-1.023-0.391-1.414,0L37,13.586l-2.293-2.293c-0.391-0.391-1.023-0.391-1.414,0s-0.391,1.023,0,1.414L36,15.414z"/>
	<path fill="#EF7F1A" d="M64.414,58l2.293-2.293c0.391-0.391,0.391-1.023,0-1.414s-1.023-0.391-1.414,0L63,56.585l-2.293-2.293
		c-0.391-0.391-1.023-0.391-1.414,0s-0.391,1.023,0,1.414L61.585,58l-2.293,2.293c-0.391,0.391-0.391,1.023,0,1.414
		C59.488,61.902,59.744,62,60,62s0.512-0.098,0.707-0.293L63,59.414l2.293,2.293C65.488,61.902,65.744,62,66,62
		s0.512-0.098,0.707-0.293c0.391-0.391,0.391-1.023,0-1.414L64.414,58z"/>
	<path fill="#EF7F1A" d="M14.923,55.381c0.101-0.244,0.101-0.52,0-0.764c-0.101-0.245-0.296-0.439-0.541-0.541
		C14.26,54.026,14.13,54,14,54H8c-0.552,0-1,0.447-1,1s0.448,1,1,1h3.586l-4.292,4.292c-0.093,0.093-0.166,0.203-0.217,0.326
		c-0.101,0.244-0.101,0.52,0,0.764c0.101,0.245,0.296,0.439,0.541,0.541C7.74,61.973,7.87,62,8,62h6c0.552,0,1-0.447,1-1
		s-0.448-1-1-1h-3.586l4.292-4.292C14.799,55.615,14.872,55.504,14.923,55.381z"/>
</g>
</svg>
