<?xml version="1.0" encoding="utf-8"?>
<!-- Generator: Adobe Illustrator 16.0.0, SVG Export Plug-In . SVG Version: 6.00 Build 0)  -->
<!DOCTYPE svg PUBLIC "-//W3C//DTD SVG 1.1//EN" "http://www.w3.org/Graphics/SVG/1.1/DTD/svg11.dtd">
<svg version="1.1" id="Layer_1" xmlns="http://www.w3.org/2000/svg" xmlns:xlink="http://www.w3.org/1999/xlink" x="0px" y="0px"
	 width="74.789px" height="74.789px" viewBox="0 0 74.789 74.789" enable-background="new 0 0 74.789 74.789" xml:space="preserve">
<g id="Слой_1" display="none">
	<path display="inline" fill="none" stroke="#EF7F1A" stroke-width="2" stroke-linejoin="round" stroke-miterlimit="10" d="
		M20.927,61.748c-5.103,0-12.436,0-12.436,0s6.016-2.375,6.016-8.084c0-3.785,2.716-3.916,5.186-3.916h0.415
		c2.973,0,5.382,2.25,5.382,5.221l0,0C25.491,57.626,26.03,61.748,20.927,61.748z"/>
	<path display="inline" fill="none" stroke="#EF7F1A" stroke-width="2" stroke-linejoin="round" stroke-miterlimit="10" d="
		M64.735,11.505c-2.343-2.343-6.142-2.343-8.485,0l-2.828,2.828L21.33,49.89c2.296,0.503,4.013,2.393,4.134,4.814l0.543,0.543
		l35.899-32.43l2.828-2.828C67.078,17.647,67.078,13.848,64.735,11.505z"/>
	<polygon display="inline" fill="none" stroke="#EF7F1A" stroke-width="2" stroke-linejoin="round" stroke-miterlimit="10" points="
		33.002,48.929 37.461,44.901 31.349,38.791 27.323,43.25 	"/>
</g>
<g id="Слой_2" display="none">
	
		<polygon display="inline" fill="none" stroke="#EF7F1A" stroke-width="2" stroke-linecap="round" stroke-linejoin="round" stroke-miterlimit="10" points="
		38,65 12,52 12,20 38,33 	"/>
	
		<polygon display="inline" fill="none" stroke="#EF7F1A" stroke-width="2" stroke-linecap="round" stroke-linejoin="round" stroke-miterlimit="10" points="
		38,65 64,52 64,20 38,33 	"/>
	
		<polygon display="inline" fill="none" stroke="#EF7F1A" stroke-width="2" stroke-linecap="round" stroke-linejoin="round" stroke-miterlimit="10" points="
		12,20 37,7 64,20 38,33 	"/>
	<circle display="inline" fill="#EF7F1A" cx="24" cy="33" r="1"/>
	<circle display="inline" fill="#EF7F1A" cx="15" cy="24" r="1"/>
	<circle display="inline" fill="#EF7F1A" cx="18" cy="27" r="1"/>
	<circle display="inline" fill="#EF7F1A" cx="24" cy="27" r="1"/>
	<circle display="inline" fill="#EF7F1A" cx="15" cy="30" r="1"/>
	<circle display="inline" fill="#EF7F1A" cx="18" cy="33" r="1"/>
	<circle display="inline" fill="#EF7F1A" cx="21" cy="30" r="1"/>
	<circle display="inline" fill="#EF7F1A" cx="27" cy="30" r="1"/>
	<circle display="inline" fill="#EF7F1A" cx="30" cy="33" r="1"/>
	<circle display="inline" fill="#EF7F1A" cx="36" cy="33" r="1"/>
	<circle display="inline" fill="#EF7F1A" cx="24" cy="45" r="1"/>
	<circle display="inline" fill="#EF7F1A" cx="15" cy="36" r="1"/>
	<circle display="inline" fill="#EF7F1A" cx="18" cy="39" r="1"/>
	<circle display="inline" fill="#EF7F1A" cx="24" cy="39" r="1"/>
	<circle display="inline" fill="#EF7F1A" cx="21" cy="36" r="1"/>
	<circle display="inline" fill="#EF7F1A" cx="15" cy="42" r="1"/>
	<circle display="inline" fill="#EF7F1A" cx="18" cy="45" r="1"/>
	<circle display="inline" fill="#EF7F1A" cx="21" cy="42" r="1"/>
	<circle display="inline" fill="#EF7F1A" cx="27" cy="36" r="1"/>
	<circle display="inline" fill="#EF7F1A" cx="27" cy="42" r="1"/>
	<circle display="inline" fill="#EF7F1A" cx="30" cy="45" r="1"/>
	<circle display="inline" fill="#EF7F1A" cx="30" cy="39" r="1"/>
	<circle display="inline" fill="#EF7F1A" cx="33" cy="36" r="1"/>
	<circle display="inline" fill="#EF7F1A" cx="33" cy="42" r="1"/>
	<circle display="inline" fill="#EF7F1A" cx="36" cy="45" r="1"/>
	<circle display="inline" fill="#EF7F1A" cx="36" cy="39" r="1"/>
	<circle display="inline" fill="#EF7F1A" cx="24" cy="57" r="1"/>
	<circle display="inline" fill="#EF7F1A" cx="15" cy="48" r="1"/>
	<circle display="inline" fill="#EF7F1A" cx="18" cy="51" r="1"/>
	<circle display="inline" fill="#EF7F1A" cx="24" cy="51" r="1"/>
	<circle display="inline" fill="#EF7F1A" cx="21" cy="48" r="1"/>
	<circle display="inline" fill="#EF7F1A" cx="21" cy="54" r="1"/>
	<circle display="inline" fill="#EF7F1A" cx="27" cy="48" r="1"/>
	<circle display="inline" fill="#EF7F1A" cx="27" cy="54" r="1"/>
	<circle display="inline" fill="#EF7F1A" cx="30" cy="57" r="1"/>
	<circle display="inline" fill="#EF7F1A" cx="30" cy="51" r="1"/>
	<circle display="inline" fill="#EF7F1A" cx="33" cy="48" r="1"/>
	<circle display="inline" fill="#EF7F1A" cx="33" cy="54" r="1"/>
	<circle display="inline" fill="#EF7F1A" cx="36" cy="57" r="1"/>
	<circle display="inline" fill="#EF7F1A" cx="36" cy="51" r="1"/>
	<circle display="inline" fill="#EF7F1A" cx="33" cy="60" r="1"/>
	<circle display="inline" fill="#EF7F1A" cx="36" cy="63" r="1"/>
</g>
<g id="Слой_3" display="none">
	
		<polygon display="inline" fill="none" stroke="#EF7F1A" stroke-width="2" stroke-linecap="round" stroke-linejoin="round" stroke-miterlimit="10" points="
		27.594,60.464 12.745,64 16.281,49.151 52.343,13.088 63.658,24.402 	"/>
	
		<line display="inline" fill="none" stroke="#EF7F1A" stroke-width="2" stroke-linecap="round" stroke-linejoin="round" stroke-miterlimit="10" x1="16.281" y1="49.151" x2="22.645" y2="48.444"/>
	
		<line display="inline" fill="none" stroke="#EF7F1A" stroke-width="2" stroke-linecap="round" stroke-linejoin="round" stroke-miterlimit="10" x1="21.938" y1="54.808" x2="22.645" y2="48.444"/>
	
		<line display="inline" fill="none" stroke="#EF7F1A" stroke-width="2" stroke-linecap="round" stroke-linejoin="round" stroke-miterlimit="10" x1="21.938" y1="54.808" x2="28.302" y2="54.101"/>
	
		<line display="inline" fill="none" stroke="#EF7F1A" stroke-width="2" stroke-linecap="round" stroke-linejoin="round" stroke-miterlimit="10" x1="27.594" y1="60.464" x2="28.302" y2="54.101"/>
	
		<line display="inline" fill="none" stroke="#EF7F1A" stroke-width="2" stroke-linecap="round" stroke-linejoin="round" stroke-miterlimit="10" x1="21.938" y1="54.808" x2="28.302" y2="54.101"/>
	
		<line display="inline" fill="none" stroke="#EF7F1A" stroke-width="2" stroke-linecap="round" stroke-linejoin="round" stroke-miterlimit="10" x1="12.745" y1="64" x2="16" y2="60.746"/>
	
		<path display="inline" fill="none" stroke="#EF7F1A" stroke-width="2" stroke-linecap="round" stroke-linejoin="round" stroke-miterlimit="10" d="
		M52.343,13.088c3.123-3.124,8.189-3.124,11.314,0c3.123,3.124,3.123,8.19,0,11.314"/>
	
		<line display="inline" fill="none" stroke="#EF7F1A" stroke-width="2" stroke-linecap="round" stroke-linejoin="round" stroke-miterlimit="10" x1="46.686" y1="18.745" x2="58" y2="30.059"/>
	
		<line display="inline" fill="none" stroke="#EF7F1A" stroke-width="2" stroke-linecap="round" stroke-linejoin="round" stroke-miterlimit="10" x1="49.515" y1="15.917" x2="60.828" y2="27.231"/>
	
		<line display="inline" fill="none" stroke="#EF7F1A" stroke-width="2" stroke-linecap="round" stroke-linejoin="round" stroke-miterlimit="10" x1="22.645" y1="48.444" x2="45.272" y2="25.816"/>
	
		<line display="inline" fill="none" stroke="#EF7F1A" stroke-width="2" stroke-linecap="round" stroke-linejoin="round" stroke-miterlimit="10" x1="28.302" y1="54.101" x2="50.929" y2="31.473"/>
</g>
<g id="Слой_4" display="none">
	
		<line display="inline" fill="none" stroke="#EF7F1A" stroke-width="2" stroke-linecap="round" stroke-miterlimit="10" x1="37" y1="42" x2="37" y2="23"/>
	<polyline display="inline" fill="none" stroke="#EF7F1A" stroke-width="2" stroke-linecap="round" stroke-miterlimit="10" points="
		56,55 37,42 19,55 	"/>
	
		<line display="inline" fill="none" stroke="#EF7F1A" stroke-width="2" stroke-linecap="round" stroke-miterlimit="10" x1="34" y1="12" x2="37" y2="15"/>
	
		<line display="inline" fill="none" stroke="#EF7F1A" stroke-width="2" stroke-linecap="round" stroke-miterlimit="10" x1="37" y1="15" x2="40" y2="12"/>
	
		<line display="inline" fill="none" stroke="#EF7F1A" stroke-width="2" stroke-linecap="round" stroke-miterlimit="10" x1="37" y1="15" x2="37" y2="18"/>
	
		<line display="inline" fill="none" stroke="#EF7F1A" stroke-width="2" stroke-linecap="round" stroke-miterlimit="10" x1="60" y1="55" x2="66" y2="61"/>
	
		<line display="inline" fill="none" stroke="#EF7F1A" stroke-width="2" stroke-linecap="round" stroke-miterlimit="10" x1="60" y1="61" x2="66" y2="55"/>
	
		<line display="inline" fill="none" stroke="#EF7F1A" stroke-width="2" stroke-linecap="round" stroke-miterlimit="10" x1="8" y1="55" x2="14" y2="55"/>
	
		<line display="inline" fill="none" stroke="#EF7F1A" stroke-width="2" stroke-linecap="round" stroke-miterlimit="10" x1="14" y1="55" x2="8" y2="61"/>
	
		<line display="inline" fill="none" stroke="#EF7F1A" stroke-width="2" stroke-linecap="round" stroke-miterlimit="10" x1="8" y1="61" x2="14" y2="61"/>
</g>
<g>
	<path fill="#EF7F1A" d="M24,19.252c0-4.029-2.577-7.766-7.07-10.251L16,8.486l-0.931,0.515C10.576,11.486,8,15.223,8,19.252
		c0,4.008,2.551,7.726,7,10.211v9.413c0,0.553,0.448,1,1,1s1-0.447,1-1v-9.413C21.449,26.978,24,23.26,24,19.252z M10,19.252
		c0-3.27,2.187-6.359,6-8.481c3.814,2.122,6,5.211,6,8.481c0,2.967-1.816,5.778-5,7.86V23.29l2.707-2.707
		c0.391-0.391,0.391-1.023,0-1.414s-1.023-0.391-1.414,0L17,20.462v-2.586c0-0.552-0.448-1-1-1s-1,0.448-1,1v2.586l-1.293-1.293
		c-0.391-0.391-1.023-0.391-1.414,0s-0.391,1.023,0,1.414L15,23.29v3.823C11.816,25.031,10,22.22,10,19.252z"/>
	<path fill="#EF7F1A" d="M27.931,34.248l-0.932-0.515l-0.93,0.516C21.576,36.735,19,40.471,19,44.5c0,4.009,2.552,7.726,7,10.21
		v9.414c0,0.553,0.448,1,1,1s1-0.447,1-1V54.71c4.449-2.485,7-6.203,7-10.211C35,40.469,32.424,36.733,27.931,34.248z M28,52.36
		v-3.821l2.707-2.707c0.391-0.391,0.391-1.023,0-1.414s-1.023-0.391-1.414,0L28,45.71v-2.586c0-0.553-0.448-1-1-1s-1,0.447-1,1
		v2.586l-1.293-1.293c-0.391-0.391-1.023-0.391-1.414,0s-0.391,1.023,0,1.414L26,48.539v3.822c-3.184-2.082-5-4.893-5-7.86
		c0-3.269,2.187-6.358,6.001-8.481c3.813,2.122,6,5.211,6,8.48C33,47.467,31.185,50.278,28,52.36z"/>
	<path fill="#EF7F1A" d="M49.93,34.248l-0.933-0.515l-0.929,0.516C43.577,36.735,41,40.471,41,44.5c0,4.009,2.552,7.726,7,10.21
		v9.414c0,0.553,0.447,1,1,1s1-0.447,1-1v-9.413C54.449,52.226,57,48.507,57,44.5C57,40.469,54.423,36.733,49.93,34.248z M50,52.36
		v-3.821l2.707-2.707c0.391-0.391,0.391-1.023,0-1.414s-1.023-0.391-1.414,0L50,45.71v-2.586c0-0.553-0.447-1-1-1s-1,0.447-1,1
		v2.586l-1.293-1.293c-0.391-0.391-1.023-0.391-1.414,0s-0.391,1.023,0,1.414L48,48.539v3.822c-3.184-2.082-5-4.893-5-7.86
		c0-3.269,2.186-6.358,6.001-8.481c3.814,2.122,6,5.211,6,8.48C55,47.467,53.185,50.278,50,52.36z"/>
	<path fill="#EF7F1A" d="M68,19.252c0-4.029-2.577-7.766-7.07-10.252l-0.932-0.514l-0.93,0.515C54.577,11.486,52,15.223,52,19.252
		c0,4.008,2.552,7.726,7,10.211v9.413c0,0.553,0.447,1,1,1s1-0.447,1-1v-9.413C65.449,26.979,68,23.261,68,19.252z M61,27.113V23.29
		l2.707-2.707c0.391-0.391,0.391-1.023,0-1.414s-1.023-0.391-1.414,0L61,20.462v-2.586c0-0.552-0.447-1-1-1s-1,0.448-1,1v2.586
		l-1.293-1.293c-0.391-0.391-1.023-0.391-1.414,0s-0.391,1.023,0,1.414L59,23.29v3.822c-3.185-2.082-5-4.893-5-7.86
		c0-3.27,2.187-6.358,6.001-8.481c3.813,2.122,6,5.211,6,8.481C66,22.22,64.184,25.031,61,27.113z"/>
	<path fill="#EF7F1A" d="M46,19.252c0-4.029-2.577-7.766-7.07-10.252l-0.932-0.514l-0.929,0.515C32.576,11.486,30,15.223,30,19.252
		c0,4.008,2.551,7.726,7,10.211v9.413c0,0.553,0.448,1,1,1c0.553,0,1-0.447,1-1v-9.413C43.449,26.979,46,23.261,46,19.252z
		 M32,19.252c0-3.27,2.187-6.358,6.001-8.481c3.813,2.122,6,5.211,6,8.481c0,2.968-1.816,5.779-5.001,7.861V23.29l2.707-2.707
		c0.391-0.391,0.391-1.023,0-1.414s-1.023-0.391-1.414,0L39,20.462v-2.586c0-0.552-0.447-1-1-1c-0.552,0-1,0.448-1,1v2.585
		l-1.292-1.292c-0.391-0.391-1.023-0.391-1.414,0c-0.391,0.39-0.391,1.023,0,1.414L37,23.29v3.822C33.815,25.03,32,22.22,32,19.252z
		"/>
</g>
</svg>
