<?xml version="1.0" encoding="utf-8"?>
<!-- Generator: Adobe Illustrator 17.0.0, SVG Export Plug-In . SVG Version: 6.00 Build 0)  -->
<!DOCTYPE svg PUBLIC "-//W3C//DTD SVG 1.1//EN" "http://www.w3.org/Graphics/SVG/1.1/DTD/svg11.dtd">
<svg version="1.1" xmlns="http://www.w3.org/2000/svg" xmlns:xlink="http://www.w3.org/1999/xlink" x="0px" y="0px"
	 width="66.605px" height="66.605px" viewBox="0 0 66.605 66.605" enable-background="new 0 0 66.605 66.605" xml:space="preserve">
<g id="Слой_2" display="none">
	<rect x="-17.141" y="-21.89" display="inline" fill="#1D1D1B" width="102.888" height="102.527"/>
</g>
<g id="Слой_1" display="none">
	<g display="inline">
		
			<line fill="none" stroke="#FFFFFF" stroke-width="2" stroke-linecap="round" stroke-linejoin="round" stroke-miterlimit="10" x1="58.303" y1="40.813" x2="62.303" y2="40.813"/>
		<path fill="none" stroke="#FFFFFF" stroke-width="2" stroke-linecap="round" stroke-linejoin="round" stroke-miterlimit="10" d="
			M56.303,46.813h2c2.209,0,4-1.791,4-4V35.47c0-1.061-0.421-2.078-1.172-2.829l-7.485-7.485c-1.5-1.5-3.535-2.343-5.657-2.343
			h-7.686v24h6"/>
		<path fill="none" stroke="#FFFFFF" stroke-width="2" stroke-linecap="round" stroke-linejoin="round" stroke-miterlimit="10" d="
			M22.303,46.813h18v-26c0-3.314-2.686-6-6-6h-24c-3.314,0-6,2.686-6,6v20c0,3.314,2.686,6,6,6h2"/>
		
			<polyline fill="none" stroke="#FFFFFF" stroke-width="2" stroke-linecap="round" stroke-linejoin="round" stroke-miterlimit="10" points="
			55.303,26.813 44.303,26.813 44.303,34.813 62.244,34.813 		"/>
		
			<circle fill="none" stroke="#FFFFFF" stroke-width="2" stroke-linecap="round" stroke-linejoin="round" stroke-miterlimit="10" cx="17.303" cy="47.813" r="5"/>
		
			<circle fill="none" stroke="#FFFFFF" stroke-width="2" stroke-linecap="round" stroke-linejoin="round" stroke-miterlimit="10" cx="17.303" cy="47.813" r="1"/>
		
			<circle fill="none" stroke="#FFFFFF" stroke-width="2" stroke-linecap="round" stroke-linejoin="round" stroke-miterlimit="10" cx="51.303" cy="47.813" r="1"/>
		
			<circle fill="none" stroke="#FFFFFF" stroke-width="2" stroke-linecap="round" stroke-linejoin="round" stroke-miterlimit="10" cx="51.303" cy="47.813" r="5"/>
		
			<line fill="none" stroke="#FFFFFF" stroke-width="2" stroke-linecap="round" stroke-linejoin="round" stroke-miterlimit="10" x1="4.303" y1="38.813" x2="40.303" y2="38.813"/>
		
			<line fill="none" stroke="#FFFFFF" stroke-width="2" stroke-linecap="round" stroke-linejoin="round" stroke-miterlimit="10" x1="8.303" y1="34.813" x2="8.303" y2="38.813"/>
		
			<line fill="none" stroke="#FFFFFF" stroke-width="2" stroke-linecap="round" stroke-linejoin="round" stroke-miterlimit="10" x1="12.303" y1="34.813" x2="12.303" y2="38.813"/>
		
			<line fill="none" stroke="#FFFFFF" stroke-width="2" stroke-linecap="round" stroke-linejoin="round" stroke-miterlimit="10" x1="16.303" y1="34.813" x2="16.303" y2="38.813"/>
		
			<line fill="none" stroke="#FFFFFF" stroke-width="2" stroke-linecap="round" stroke-linejoin="round" stroke-miterlimit="10" x1="20.303" y1="34.813" x2="20.303" y2="38.813"/>
		
			<line fill="none" stroke="#FFFFFF" stroke-width="2" stroke-linecap="round" stroke-linejoin="round" stroke-miterlimit="10" x1="24.303" y1="34.813" x2="24.303" y2="38.813"/>
		
			<line fill="none" stroke="#FFFFFF" stroke-width="2" stroke-linecap="round" stroke-linejoin="round" stroke-miterlimit="10" x1="28.303" y1="34.813" x2="28.303" y2="38.813"/>
		
			<line fill="none" stroke="#FFFFFF" stroke-width="2" stroke-linecap="round" stroke-linejoin="round" stroke-miterlimit="10" x1="32.303" y1="34.813" x2="32.303" y2="38.813"/>
		
			<line fill="none" stroke="#FFFFFF" stroke-width="2" stroke-linecap="round" stroke-linejoin="round" stroke-miterlimit="10" x1="36.303" y1="34.813" x2="36.303" y2="38.813"/>
	</g>
</g>
<g id="Слой_3">
	<g>
		<path fill="none" stroke="#FFFFFF" stroke-width="2" stroke-linecap="round" stroke-linejoin="round" stroke-miterlimit="10" d="
			M48.558,57.564l4.269-4.269c1.703-1.703,1.529-4.514-0.372-5.993L45.772,42.1c-1.456-1.133-3.496-1.125-4.944,0.018l-1.486,1.174
			c-1.594,1.26-3.879,1.126-5.316-0.311L22.071,31.026c-1.437-1.437-1.57-3.721-0.311-5.316l1.174-1.486
			c1.143-1.447,1.151-3.488,0.018-4.944l-5.202-6.684c-1.479-1.901-4.29-2.075-5.993-0.372l-4.269,4.269
			c-2.942,2.942-2.93,11.19,13.475,27.595C37.367,60.494,45.851,60.271,48.558,57.564z"/>
		<path fill="none" stroke="#FFFFFF" stroke-width="2" stroke-linecap="round" stroke-linejoin="round" stroke-miterlimit="10" d="
			M58,32C58,18.193,46.807,7,33,7"/>
		<path fill="none" stroke="#FFFFFF" stroke-width="2" stroke-linecap="round" stroke-linejoin="round" stroke-miterlimit="10" d="
			M33,13c10.493,0,19,8.507,19,19"/>
		<path fill="none" stroke="#FFFFFF" stroke-width="2" stroke-linecap="round" stroke-linejoin="round" stroke-miterlimit="10" d="
			M33,19c7.18,0,13,5.82,13,13"/>
		<path fill="none" stroke="#FFFFFF" stroke-width="2" stroke-linecap="round" stroke-linejoin="round" stroke-miterlimit="10" d="
			M33,25c3.866,0,7,3.134,7,7"/>
	</g>
</g>
</svg>
