<?xml version="1.0" encoding="utf-8"?>
<!-- Generator: Adobe Illustrator 17.0.0, SVG Export Plug-In . SVG Version: 6.00 Build 0)  -->
<!DOCTYPE svg PUBLIC "-//W3C//DTD SVG 1.1//EN" "http://www.w3.org/Graphics/SVG/1.1/DTD/svg11.dtd">
<svg version="1.1" xmlns="http://www.w3.org/2000/svg" xmlns:xlink="http://www.w3.org/1999/xlink" x="0px" y="0px"
	 width="66.605px" height="66.605px" viewBox="0 0 66.605 66.605" enable-background="new 0 0 66.605 66.605" xml:space="preserve">
<g id="Слой_2" display="none">
	<rect x="-17.141" y="-21.89" display="inline" fill="#1D1D1B" width="102.888" height="102.527"/>
</g>
<g id="Слой_1" display="none">
	<g display="inline">
		
			<line fill="none" stroke="#FFFFFF" stroke-width="2" stroke-linecap="round" stroke-linejoin="round" stroke-miterlimit="10" x1="58.303" y1="40.813" x2="62.303" y2="40.813"/>
		<path fill="none" stroke="#FFFFFF" stroke-width="2" stroke-linecap="round" stroke-linejoin="round" stroke-miterlimit="10" d="
			M56.303,46.813h2c2.209,0,4-1.791,4-4V35.47c0-1.061-0.421-2.078-1.172-2.829l-7.485-7.485c-1.5-1.5-3.535-2.343-5.657-2.343
			h-7.686v24h6"/>
		<path fill="none" stroke="#FFFFFF" stroke-width="2" stroke-linecap="round" stroke-linejoin="round" stroke-miterlimit="10" d="
			M22.303,46.813h18v-26c0-3.314-2.686-6-6-6h-24c-3.314,0-6,2.686-6,6v20c0,3.314,2.686,6,6,6h2"/>
		
			<polyline fill="none" stroke="#FFFFFF" stroke-width="2" stroke-linecap="round" stroke-linejoin="round" stroke-miterlimit="10" points="
			55.303,26.813 44.303,26.813 44.303,34.813 62.244,34.813 		"/>
		
			<circle fill="none" stroke="#FFFFFF" stroke-width="2" stroke-linecap="round" stroke-linejoin="round" stroke-miterlimit="10" cx="17.303" cy="47.813" r="5"/>
		
			<circle fill="none" stroke="#FFFFFF" stroke-width="2" stroke-linecap="round" stroke-linejoin="round" stroke-miterlimit="10" cx="17.303" cy="47.813" r="1"/>
		
			<circle fill="none" stroke="#FFFFFF" stroke-width="2" stroke-linecap="round" stroke-linejoin="round" stroke-miterlimit="10" cx="51.303" cy="47.813" r="1"/>
		
			<circle fill="none" stroke="#FFFFFF" stroke-width="2" stroke-linecap="round" stroke-linejoin="round" stroke-miterlimit="10" cx="51.303" cy="47.813" r="5"/>
		
			<line fill="none" stroke="#FFFFFF" stroke-width="2" stroke-linecap="round" stroke-linejoin="round" stroke-miterlimit="10" x1="4.303" y1="38.813" x2="40.303" y2="38.813"/>
		
			<line fill="none" stroke="#FFFFFF" stroke-width="2" stroke-linecap="round" stroke-linejoin="round" stroke-miterlimit="10" x1="8.303" y1="34.813" x2="8.303" y2="38.813"/>
		
			<line fill="none" stroke="#FFFFFF" stroke-width="2" stroke-linecap="round" stroke-linejoin="round" stroke-miterlimit="10" x1="12.303" y1="34.813" x2="12.303" y2="38.813"/>
		
			<line fill="none" stroke="#FFFFFF" stroke-width="2" stroke-linecap="round" stroke-linejoin="round" stroke-miterlimit="10" x1="16.303" y1="34.813" x2="16.303" y2="38.813"/>
		
			<line fill="none" stroke="#FFFFFF" stroke-width="2" stroke-linecap="round" stroke-linejoin="round" stroke-miterlimit="10" x1="20.303" y1="34.813" x2="20.303" y2="38.813"/>
		
			<line fill="none" stroke="#FFFFFF" stroke-width="2" stroke-linecap="round" stroke-linejoin="round" stroke-miterlimit="10" x1="24.303" y1="34.813" x2="24.303" y2="38.813"/>
		
			<line fill="none" stroke="#FFFFFF" stroke-width="2" stroke-linecap="round" stroke-linejoin="round" stroke-miterlimit="10" x1="28.303" y1="34.813" x2="28.303" y2="38.813"/>
		
			<line fill="none" stroke="#FFFFFF" stroke-width="2" stroke-linecap="round" stroke-linejoin="round" stroke-miterlimit="10" x1="32.303" y1="34.813" x2="32.303" y2="38.813"/>
		
			<line fill="none" stroke="#FFFFFF" stroke-width="2" stroke-linecap="round" stroke-linejoin="round" stroke-miterlimit="10" x1="36.303" y1="34.813" x2="36.303" y2="38.813"/>
	</g>
</g>
<g id="Слой_3" display="none">
	<g display="inline">
		<path fill="none" stroke="#FFFFFF" stroke-width="2" stroke-linecap="round" stroke-linejoin="round" stroke-miterlimit="10" d="
			M48.558,57.564l4.269-4.269c1.703-1.703,1.529-4.514-0.372-5.993L45.772,42.1c-1.456-1.133-3.496-1.125-4.944,0.018l-1.486,1.174
			c-1.594,1.26-3.879,1.126-5.316-0.311L22.071,31.026c-1.437-1.437-1.57-3.721-0.311-5.316l1.174-1.486
			c1.143-1.447,1.151-3.488,0.018-4.944l-5.202-6.684c-1.479-1.901-4.29-2.075-5.993-0.372l-4.269,4.269
			c-2.942,2.942-2.93,11.19,13.475,27.595C37.367,60.494,45.851,60.271,48.558,57.564z"/>
		<path fill="none" stroke="#FFFFFF" stroke-width="2" stroke-linecap="round" stroke-linejoin="round" stroke-miterlimit="10" d="
			M58,32C58,18.193,46.807,7,33,7"/>
		<path fill="none" stroke="#FFFFFF" stroke-width="2" stroke-linecap="round" stroke-linejoin="round" stroke-miterlimit="10" d="
			M33,13c10.493,0,19,8.507,19,19"/>
		<path fill="none" stroke="#FFFFFF" stroke-width="2" stroke-linecap="round" stroke-linejoin="round" stroke-miterlimit="10" d="
			M33,19c7.18,0,13,5.82,13,13"/>
		<path fill="none" stroke="#FFFFFF" stroke-width="2" stroke-linecap="round" stroke-linejoin="round" stroke-miterlimit="10" d="
			M33,25c3.866,0,7,3.134,7,7"/>
	</g>
</g>
<g id="Слой_4" display="none">
	<g display="inline">
		
			<path fill-rule="evenodd" clip-rule="evenodd" fill="none" stroke="#FFFFFF" stroke-width="2" stroke-linecap="round" stroke-linejoin="round" stroke-miterlimit="10" d="
			M46.116,31.081c5.553,3.09,8.006,9.349,8.006,15.154c0,9.203-9.24,17.419-21.062,15.478C21.917,63.653,12,55.439,12,46.235
			c0-5.607,2.846-12.003,8.096-15.255c1.27-7.611,6.1-15.264,12.963-13.217C41.135,15.415,45.142,23.366,46.116,31.081
			L46.116,31.081z"/>
		
			<path fill-rule="evenodd" clip-rule="evenodd" fill="none" stroke="#FFFFFF" stroke-width="2" stroke-linecap="round" stroke-linejoin="round" stroke-miterlimit="10" d="
			M45.614,54.986c2.89-2.298,4.508-5.594,4.508-8.751"/>
		
			<path fill-rule="evenodd" clip-rule="evenodd" fill="none" stroke="#FFFFFF" stroke-width="2" stroke-linecap="round" stroke-linejoin="round" stroke-miterlimit="10" d="
			M22.203,34.38c-0.185,0.115-0.367,0.236-0.546,0.364c-0.705,0.502-1.363,1.103-1.964,1.78"/>
		
			<path fill-rule="evenodd" clip-rule="evenodd" fill="none" stroke="#FFFFFF" stroke-width="2" stroke-linecap="round" stroke-linejoin="round" stroke-miterlimit="10" d="
			M28.777,22.164c-2.117,1.499-4.01,5.13-4.735,9.474"/>
		
			<path fill-rule="evenodd" clip-rule="evenodd" fill="none" stroke="#FFFFFF" stroke-width="2" stroke-linecap="round" stroke-linejoin="round" stroke-miterlimit="10" d="
			M33.186,9.712c0,0,0.857,3.589,0.003,8.017"/>
		
			<path fill-rule="evenodd" clip-rule="evenodd" fill="none" stroke="#FFFFFF" stroke-width="2" stroke-linecap="round" stroke-linejoin="round" stroke-miterlimit="10" d="
			M25.127,5.462c0.318-0.323,3.75-0.05,6.066,2.232c0.585,0.575,1.326,1.342,2.034,2.136c1.002-1.809,2.604-3.544,4.629-4.584
			c4.115-2.113,8.887-1.024,9.182-0.453c-1.947,7.148-9.152,8.812-12.7,9.089c-2.313,0.96-5.143-0.673-6.887-2.389
			C25.135,9.212,24.809,5.785,25.127,5.462z"/>
	</g>
</g>
<g id="Слой_5">
	<g>
		
			<polygon fill-rule="evenodd" clip-rule="evenodd" fill="none" stroke="#FFFFFF" stroke-width="2" stroke-linecap="round" stroke-linejoin="round" stroke-miterlimit="10" points="
			56,34 10,34 20,22 46,22 		"/>
		
			<line fill-rule="evenodd" clip-rule="evenodd" fill="none" stroke="#FFFFFF" stroke-width="2" stroke-linecap="round" stroke-linejoin="round" stroke-miterlimit="10" x1="20" y1="22" x2="33" y2="60"/>
		
			<line fill-rule="evenodd" clip-rule="evenodd" fill="none" stroke="#FFFFFF" stroke-width="2" stroke-linecap="round" stroke-linejoin="round" stroke-miterlimit="10" x1="33" y1="22" x2="24" y2="34"/>
		
			<line fill-rule="evenodd" clip-rule="evenodd" fill="none" stroke="#FFFFFF" stroke-width="2" stroke-linecap="round" stroke-linejoin="round" stroke-miterlimit="10" x1="33" y1="22" x2="42" y2="34"/>
		
			<line fill-rule="evenodd" clip-rule="evenodd" fill="none" stroke="#FFFFFF" stroke-width="2" stroke-linecap="round" stroke-linejoin="round" stroke-miterlimit="10" x1="46" y1="22" x2="33" y2="60"/>
		
			<polygon fill-rule="evenodd" clip-rule="evenodd" fill="none" stroke="#FFFFFF" stroke-width="2" stroke-linecap="round" stroke-linejoin="round" stroke-miterlimit="10" points="
			33,60 10,34 56,34 		"/>
		
			<line fill-rule="evenodd" clip-rule="evenodd" fill="none" stroke="#FFFFFF" stroke-width="2" stroke-linecap="round" stroke-linejoin="round" stroke-miterlimit="10" x1="33.196" y1="6.269" x2="33.196" y2="13.768"/>
		
			<line fill-rule="evenodd" clip-rule="evenodd" fill="none" stroke="#FFFFFF" stroke-width="2" stroke-linecap="round" stroke-linejoin="round" stroke-miterlimit="10" x1="18.83" y1="8.919" x2="22.58" y2="15.414"/>
		
			<line fill-rule="evenodd" clip-rule="evenodd" fill="none" stroke="#FFFFFF" stroke-width="2" stroke-linecap="round" stroke-linejoin="round" stroke-miterlimit="10" x1="58.871" y1="16.577" x2="52.376" y2="20.326"/>
		
			<line fill-rule="evenodd" clip-rule="evenodd" fill="none" stroke="#FFFFFF" stroke-width="2" stroke-linecap="round" stroke-linejoin="round" stroke-miterlimit="10" x1="47.83" y1="8.486" x2="44.08" y2="14.981"/>
		
			<line fill-rule="evenodd" clip-rule="evenodd" fill="none" stroke="#FFFFFF" stroke-width="2" stroke-linecap="round" stroke-linejoin="round" stroke-miterlimit="10" x1="14.283" y1="19.893" x2="7.789" y2="16.144"/>
	</g>
</g>
</svg>
