<?xml version="1.0" encoding="utf-8"?>
<!-- Generator: Adobe Illustrator 17.0.0, SVG Export Plug-In . SVG Version: 6.00 Build 0)  -->
<!DOCTYPE svg PUBLIC "-//W3C//DTD SVG 1.1//EN" "http://www.w3.org/Graphics/SVG/1.1/DTD/svg11.dtd">
<svg version="1.1" xmlns="http://www.w3.org/2000/svg" xmlns:xlink="http://www.w3.org/1999/xlink" x="0px" y="0px"
	 width="66.605px" height="66.605px" viewBox="0 0 66.605 66.605" enable-background="new 0 0 66.605 66.605" xml:space="preserve">
<g id="Слой_2" display="none">
	<rect x="-17.141" y="-21.89" display="inline" fill="#1D1D1B" width="102.888" height="102.527"/>
</g>
<g id="Слой_1" display="none">
	<g display="inline">
		
			<line fill="none" stroke="#FFFFFF" stroke-width="2" stroke-linecap="round" stroke-linejoin="round" stroke-miterlimit="10" x1="58.303" y1="40.813" x2="62.303" y2="40.813"/>
		<path fill="none" stroke="#FFFFFF" stroke-width="2" stroke-linecap="round" stroke-linejoin="round" stroke-miterlimit="10" d="
			M56.303,46.813h2c2.209,0,4-1.791,4-4V35.47c0-1.061-0.421-2.078-1.172-2.829l-7.485-7.485c-1.5-1.5-3.535-2.343-5.657-2.343
			h-7.686v24h6"/>
		<path fill="none" stroke="#FFFFFF" stroke-width="2" stroke-linecap="round" stroke-linejoin="round" stroke-miterlimit="10" d="
			M22.303,46.813h18v-26c0-3.314-2.686-6-6-6h-24c-3.314,0-6,2.686-6,6v20c0,3.314,2.686,6,6,6h2"/>
		
			<polyline fill="none" stroke="#FFFFFF" stroke-width="2" stroke-linecap="round" stroke-linejoin="round" stroke-miterlimit="10" points="
			55.303,26.813 44.303,26.813 44.303,34.813 62.244,34.813 		"/>
		
			<circle fill="none" stroke="#FFFFFF" stroke-width="2" stroke-linecap="round" stroke-linejoin="round" stroke-miterlimit="10" cx="17.303" cy="47.813" r="5"/>
		
			<circle fill="none" stroke="#FFFFFF" stroke-width="2" stroke-linecap="round" stroke-linejoin="round" stroke-miterlimit="10" cx="17.303" cy="47.813" r="1"/>
		
			<circle fill="none" stroke="#FFFFFF" stroke-width="2" stroke-linecap="round" stroke-linejoin="round" stroke-miterlimit="10" cx="51.303" cy="47.813" r="1"/>
		
			<circle fill="none" stroke="#FFFFFF" stroke-width="2" stroke-linecap="round" stroke-linejoin="round" stroke-miterlimit="10" cx="51.303" cy="47.813" r="5"/>
		
			<line fill="none" stroke="#FFFFFF" stroke-width="2" stroke-linecap="round" stroke-linejoin="round" stroke-miterlimit="10" x1="4.303" y1="38.813" x2="40.303" y2="38.813"/>
		
			<line fill="none" stroke="#FFFFFF" stroke-width="2" stroke-linecap="round" stroke-linejoin="round" stroke-miterlimit="10" x1="8.303" y1="34.813" x2="8.303" y2="38.813"/>
		
			<line fill="none" stroke="#FFFFFF" stroke-width="2" stroke-linecap="round" stroke-linejoin="round" stroke-miterlimit="10" x1="12.303" y1="34.813" x2="12.303" y2="38.813"/>
		
			<line fill="none" stroke="#FFFFFF" stroke-width="2" stroke-linecap="round" stroke-linejoin="round" stroke-miterlimit="10" x1="16.303" y1="34.813" x2="16.303" y2="38.813"/>
		
			<line fill="none" stroke="#FFFFFF" stroke-width="2" stroke-linecap="round" stroke-linejoin="round" stroke-miterlimit="10" x1="20.303" y1="34.813" x2="20.303" y2="38.813"/>
		
			<line fill="none" stroke="#FFFFFF" stroke-width="2" stroke-linecap="round" stroke-linejoin="round" stroke-miterlimit="10" x1="24.303" y1="34.813" x2="24.303" y2="38.813"/>
		
			<line fill="none" stroke="#FFFFFF" stroke-width="2" stroke-linecap="round" stroke-linejoin="round" stroke-miterlimit="10" x1="28.303" y1="34.813" x2="28.303" y2="38.813"/>
		
			<line fill="none" stroke="#FFFFFF" stroke-width="2" stroke-linecap="round" stroke-linejoin="round" stroke-miterlimit="10" x1="32.303" y1="34.813" x2="32.303" y2="38.813"/>
		
			<line fill="none" stroke="#FFFFFF" stroke-width="2" stroke-linecap="round" stroke-linejoin="round" stroke-miterlimit="10" x1="36.303" y1="34.813" x2="36.303" y2="38.813"/>
	</g>
</g>
<g id="Слой_3" display="none">
	<g display="inline">
		<path fill="none" stroke="#FFFFFF" stroke-width="2" stroke-linecap="round" stroke-linejoin="round" stroke-miterlimit="10" d="
			M48.558,57.564l4.269-4.269c1.703-1.703,1.529-4.514-0.372-5.993L45.772,42.1c-1.456-1.133-3.496-1.125-4.944,0.018l-1.486,1.174
			c-1.594,1.26-3.879,1.126-5.316-0.311L22.071,31.026c-1.437-1.437-1.57-3.721-0.311-5.316l1.174-1.486
			c1.143-1.447,1.151-3.488,0.018-4.944l-5.202-6.684c-1.479-1.901-4.29-2.075-5.993-0.372l-4.269,4.269
			c-2.942,2.942-2.93,11.19,13.475,27.595C37.367,60.494,45.851,60.271,48.558,57.564z"/>
		<path fill="none" stroke="#FFFFFF" stroke-width="2" stroke-linecap="round" stroke-linejoin="round" stroke-miterlimit="10" d="
			M58,32C58,18.193,46.807,7,33,7"/>
		<path fill="none" stroke="#FFFFFF" stroke-width="2" stroke-linecap="round" stroke-linejoin="round" stroke-miterlimit="10" d="
			M33,13c10.493,0,19,8.507,19,19"/>
		<path fill="none" stroke="#FFFFFF" stroke-width="2" stroke-linecap="round" stroke-linejoin="round" stroke-miterlimit="10" d="
			M33,19c7.18,0,13,5.82,13,13"/>
		<path fill="none" stroke="#FFFFFF" stroke-width="2" stroke-linecap="round" stroke-linejoin="round" stroke-miterlimit="10" d="
			M33,25c3.866,0,7,3.134,7,7"/>
	</g>
</g>
<g id="Слой_4" display="none">
	<g display="inline">
		
			<path fill-rule="evenodd" clip-rule="evenodd" fill="none" stroke="#FFFFFF" stroke-width="2" stroke-linecap="round" stroke-linejoin="round" stroke-miterlimit="10" d="
			M46.116,31.081c5.553,3.09,8.006,9.349,8.006,15.154c0,9.203-9.24,17.419-21.062,15.478C21.917,63.653,12,55.439,12,46.235
			c0-5.607,2.846-12.003,8.096-15.255c1.27-7.611,6.1-15.264,12.963-13.217C41.135,15.415,45.142,23.366,46.116,31.081
			L46.116,31.081z"/>
		
			<path fill-rule="evenodd" clip-rule="evenodd" fill="none" stroke="#FFFFFF" stroke-width="2" stroke-linecap="round" stroke-linejoin="round" stroke-miterlimit="10" d="
			M45.614,54.986c2.89-2.298,4.508-5.594,4.508-8.751"/>
		
			<path fill-rule="evenodd" clip-rule="evenodd" fill="none" stroke="#FFFFFF" stroke-width="2" stroke-linecap="round" stroke-linejoin="round" stroke-miterlimit="10" d="
			M22.203,34.38c-0.185,0.115-0.367,0.236-0.546,0.364c-0.705,0.502-1.363,1.103-1.964,1.78"/>
		
			<path fill-rule="evenodd" clip-rule="evenodd" fill="none" stroke="#FFFFFF" stroke-width="2" stroke-linecap="round" stroke-linejoin="round" stroke-miterlimit="10" d="
			M28.777,22.164c-2.117,1.499-4.01,5.13-4.735,9.474"/>
		
			<path fill-rule="evenodd" clip-rule="evenodd" fill="none" stroke="#FFFFFF" stroke-width="2" stroke-linecap="round" stroke-linejoin="round" stroke-miterlimit="10" d="
			M33.186,9.712c0,0,0.857,3.589,0.003,8.017"/>
		
			<path fill-rule="evenodd" clip-rule="evenodd" fill="none" stroke="#FFFFFF" stroke-width="2" stroke-linecap="round" stroke-linejoin="round" stroke-miterlimit="10" d="
			M25.127,5.462c0.318-0.323,3.75-0.05,6.066,2.232c0.585,0.575,1.326,1.342,2.034,2.136c1.002-1.809,2.604-3.544,4.629-4.584
			c4.115-2.113,8.887-1.024,9.182-0.453c-1.947,7.148-9.152,8.812-12.7,9.089c-2.313,0.96-5.143-0.673-6.887-2.389
			C25.135,9.212,24.809,5.785,25.127,5.462z"/>
	</g>
</g>
<g id="Слой_5" display="none">
	<g display="inline">
		
			<polygon fill-rule="evenodd" clip-rule="evenodd" fill="none" stroke="#FFFFFF" stroke-width="2" stroke-linecap="round" stroke-linejoin="round" stroke-miterlimit="10" points="
			56,34 10,34 20,22 46,22 		"/>
		
			<line fill-rule="evenodd" clip-rule="evenodd" fill="none" stroke="#FFFFFF" stroke-width="2" stroke-linecap="round" stroke-linejoin="round" stroke-miterlimit="10" x1="20" y1="22" x2="33" y2="60"/>
		
			<line fill-rule="evenodd" clip-rule="evenodd" fill="none" stroke="#FFFFFF" stroke-width="2" stroke-linecap="round" stroke-linejoin="round" stroke-miterlimit="10" x1="33" y1="22" x2="24" y2="34"/>
		
			<line fill-rule="evenodd" clip-rule="evenodd" fill="none" stroke="#FFFFFF" stroke-width="2" stroke-linecap="round" stroke-linejoin="round" stroke-miterlimit="10" x1="33" y1="22" x2="42" y2="34"/>
		
			<line fill-rule="evenodd" clip-rule="evenodd" fill="none" stroke="#FFFFFF" stroke-width="2" stroke-linecap="round" stroke-linejoin="round" stroke-miterlimit="10" x1="46" y1="22" x2="33" y2="60"/>
		
			<polygon fill-rule="evenodd" clip-rule="evenodd" fill="none" stroke="#FFFFFF" stroke-width="2" stroke-linecap="round" stroke-linejoin="round" stroke-miterlimit="10" points="
			33,60 10,34 56,34 		"/>
		
			<line fill-rule="evenodd" clip-rule="evenodd" fill="none" stroke="#FFFFFF" stroke-width="2" stroke-linecap="round" stroke-linejoin="round" stroke-miterlimit="10" x1="33.196" y1="6.269" x2="33.196" y2="13.768"/>
		
			<line fill-rule="evenodd" clip-rule="evenodd" fill="none" stroke="#FFFFFF" stroke-width="2" stroke-linecap="round" stroke-linejoin="round" stroke-miterlimit="10" x1="18.83" y1="8.919" x2="22.58" y2="15.414"/>
		
			<line fill-rule="evenodd" clip-rule="evenodd" fill="none" stroke="#FFFFFF" stroke-width="2" stroke-linecap="round" stroke-linejoin="round" stroke-miterlimit="10" x1="58.871" y1="16.577" x2="52.376" y2="20.326"/>
		
			<line fill-rule="evenodd" clip-rule="evenodd" fill="none" stroke="#FFFFFF" stroke-width="2" stroke-linecap="round" stroke-linejoin="round" stroke-miterlimit="10" x1="47.83" y1="8.486" x2="44.08" y2="14.981"/>
		
			<line fill-rule="evenodd" clip-rule="evenodd" fill="none" stroke="#FFFFFF" stroke-width="2" stroke-linecap="round" stroke-linejoin="round" stroke-miterlimit="10" x1="14.283" y1="19.893" x2="7.789" y2="16.144"/>
	</g>
</g>
<g id="Слой_6" display="none">
	<g display="inline">
		
			<path fill-rule="evenodd" clip-rule="evenodd" fill="none" stroke="#FFFFFF" stroke-width="2" stroke-linecap="round" stroke-linejoin="round" stroke-miterlimit="10" d="
			M40,32.007c2.325-1.97,4.062-4.9,4.716-8.175"/>
		
			<path fill-rule="evenodd" clip-rule="evenodd" fill="none" stroke="#FFFFFF" stroke-width="2" stroke-linecap="round" stroke-linejoin="round" stroke-miterlimit="10" d="
			M21.023,21.816c0.058,0.668,0.161,1.326,0.305,1.97"/>
		
			<path fill-rule="evenodd" clip-rule="evenodd" fill="none" stroke="#FFFFFF" stroke-width="2" stroke-linecap="round" stroke-linejoin="round" stroke-miterlimit="10" d="
			M22.809,8.605c-0.584,2.176-1.329,5.457-1.65,9"/>
		
			<path fill-rule="evenodd" clip-rule="evenodd" fill="none" stroke="#FFFFFF" stroke-width="2" stroke-linecap="round" stroke-linejoin="round" stroke-miterlimit="10" d="
			M30.551,38.415c-1.239-0.193-2.428-0.556-3.551-1.064 M38.999,37.352c-1.434,0.65-3,1.128-4.95,1.211"/>
		<path fill="none" stroke="#FFFFFF" stroke-width="2" stroke-linecap="round" stroke-linejoin="round" stroke-miterlimit="10" d="
			M42.833,62.605H43c-4.418,0-8-3.582-8-8V43.442c0-2.679,1.634-5.025,4.068-6.143C44.945,34.601,49,27.929,49,20.974
			c0-8.303-2.831-16.369-2.831-16.369H27"/>
		<path fill="none" stroke="#FFFFFF" stroke-width="2" stroke-linecap="round" stroke-linejoin="round" stroke-miterlimit="10" d="
			M22,4.605h-2.168c0,0-2.832,8.068-2.832,16.369c0,6.955,4.054,13.626,9.931,16.324C29.365,38.416,31,40.762,31,43.44v11.165
			c0,4.418-3.582,8-8,8"/>
		<path fill="none" stroke="#FFFFFF" stroke-width="2" stroke-linecap="round" stroke-linejoin="round" stroke-miterlimit="10" d="
			M17.386,16.63c0.365,0.076,0.716,0.171,1.046,0.285l5.72,1.979c1.967,0.68,4.67,0.68,6.637,0l5.716-1.979
			c1.966-0.681,4.67-0.681,6.637,0l5.719,1.979"/>
	</g>
</g>
<g id="Слой_7" display="none">
	<g display="inline">
		
			<line fill="none" stroke="#FFFFFF" stroke-width="2" stroke-linecap="round" stroke-linejoin="round" stroke-miterlimit="10" x1="22" y1="42" x2="44" y2="42"/>
		<path fill="none" stroke="#FFFFFF" stroke-width="2" stroke-linecap="round" stroke-linejoin="round" stroke-miterlimit="10" d="
			M56,42L56,42c3.314,0,6-2.686,6-6v-0.917c0-2.933-2.121-5.436-5.014-5.918l-4.312-0.719c-1.751-0.292-3.394-1.045-4.758-2.182
			l-7.136-5.946C38.984,18.82,36.719,18,34.379,18h-9.463C22.201,18,20,20.201,20,22.917V28H8c-2.209,0-4,1.791-4,4v4
			c0,3.314,2.686,6,6,6l0,0"/>
		<path fill="none" stroke="#FFFFFF" stroke-width="2" stroke-linecap="round" stroke-linejoin="round" stroke-miterlimit="10" d="
			M42.658,22H25.5c-0.828,0-1.5,0.672-1.5,1.5V27c0,0.552,0.448,1,1,1h25.733"/>
		
			<line fill="none" stroke="#FFFFFF" stroke-width="2" stroke-linecap="round" stroke-linejoin="round" stroke-miterlimit="10" x1="32" y1="28" x2="32" y2="22"/>
		
			<line fill="none" stroke="#FFFFFF" stroke-width="2" stroke-linecap="round" stroke-linejoin="round" stroke-miterlimit="10" x1="58" y1="34" x2="61.8" y2="34"/>
		
			<line fill="none" stroke="#FFFFFF" stroke-width="2" stroke-linecap="round" stroke-linejoin="round" stroke-miterlimit="10" x1="32" y1="32" x2="34" y2="32"/>
		
			<circle fill="none" stroke="#FFFFFF" stroke-width="2" stroke-linecap="round" stroke-linejoin="round" stroke-miterlimit="10" cx="16" cy="42" r="6"/>
		
			<circle fill="none" stroke="#FFFFFF" stroke-width="2" stroke-linecap="round" stroke-linejoin="round" stroke-miterlimit="10" cx="16" cy="42" r="1.75"/>
		
			<circle fill="none" stroke="#FFFFFF" stroke-width="2" stroke-linecap="round" stroke-linejoin="round" stroke-miterlimit="10" cx="50" cy="42" r="6"/>
		
			<circle fill="none" stroke="#FFFFFF" stroke-width="2" stroke-linecap="round" stroke-linejoin="round" stroke-miterlimit="10" cx="50" cy="42" r="1.75"/>
	</g>
</g>
<g id="Слой_8" display="none">
	<g display="inline">
		
			<rect x="10" y="17.605" fill="none" stroke="#FFFFFF" stroke-width="2" stroke-linecap="round" stroke-linejoin="round" stroke-miterlimit="10" width="46" height="42"/>
		
			<polyline fill="none" stroke="#FFFFFF" stroke-width="2" stroke-linecap="round" stroke-linejoin="round" stroke-miterlimit="10" points="
			12,17.605 12,7.605 54,7.605 54,17.605 		"/>
		
			<polyline fill="none" stroke="#FFFFFF" stroke-width="2" stroke-linecap="round" stroke-linejoin="round" stroke-miterlimit="10" points="
			12,7.605 18,11.605 10,17.605 		"/>
		
			<polyline fill="none" stroke="#FFFFFF" stroke-width="2" stroke-linecap="round" stroke-linejoin="round" stroke-miterlimit="10" points="
			54,7.605 48,11.605 56,17.605 		"/>
		<path fill="none" stroke="#FFFFFF" stroke-width="2" stroke-linecap="round" stroke-linejoin="round" stroke-miterlimit="10" d="
			M25,25.605v8c0,4.418,3.582,8,8,8l0,0c4.418,0,8-3.582,8-8v-8"/>
		
			<circle fill="none" stroke="#FFFFFF" stroke-width="2" stroke-linecap="round" stroke-linejoin="round" stroke-miterlimit="10" cx="25" cy="23.605" r="2"/>
		
			<circle fill="none" stroke="#FFFFFF" stroke-width="2" stroke-linecap="round" stroke-linejoin="round" stroke-miterlimit="10" cx="41" cy="23.605" r="2"/>
		
			<line fill="none" stroke="#FFFFFF" stroke-width="2" stroke-linecap="round" stroke-linejoin="round" stroke-miterlimit="10" x1="18" y1="11.605" x2="18" y2="17.605"/>
		
			<line fill="none" stroke="#FFFFFF" stroke-width="2" stroke-linecap="round" stroke-linejoin="round" stroke-miterlimit="10" x1="48" y1="11.605" x2="48" y2="17.605"/>
	</g>
</g>
<g id="Слой_9" display="none">
	<g display="inline">
		<path fill="none" stroke="#FFFFFF" stroke-width="2" stroke-linecap="round" stroke-linejoin="round" stroke-miterlimit="10" d="
			M4.012,49.168c5.018,0.847,8.978,4.81,9.821,9.829"/>
		<path fill="none" stroke="#FFFFFF" stroke-width="2" stroke-linecap="round" stroke-linejoin="round" stroke-miterlimit="10" d="
			M62,49.168c-5.018,0.847-8.978,4.81-9.822,9.829"/>
		<path fill="none" stroke="#FFFFFF" stroke-width="2" stroke-linecap="round" stroke-linejoin="round" stroke-miterlimit="10" d="
			M4.012,24.829C9.03,23.982,12.99,20.02,13.834,15"/>
		<path fill="none" stroke="#FFFFFF" stroke-width="2" stroke-linecap="round" stroke-linejoin="round" stroke-miterlimit="10" d="
			M62,24.829c-5.018-0.847-8.978-4.809-9.822-9.829"/>
		<g>
			<g>
				
					<line fill="none" stroke="#FFFFFF" stroke-width="2" stroke-linecap="round" stroke-linejoin="round" x1="16" y1="19" x2="16" y2="19"/>
				
					<polyline fill="none" stroke="#FFFFFF" stroke-width="2" stroke-linecap="round" stroke-linejoin="round" stroke-dasharray="0,3.7778" points="
					19.778,19 48,19 48.111,19 				"/>
				
					<line fill="none" stroke="#FFFFFF" stroke-width="2" stroke-linecap="round" stroke-linejoin="round" x1="50" y1="19" x2="50" y2="19"/>
			</g>
		</g>
		<g>
			<g>
				
					<line fill="none" stroke="#FFFFFF" stroke-width="2" stroke-linecap="round" stroke-linejoin="round" x1="8" y1="28" x2="8" y2="28"/>
				
					<polyline fill="none" stroke="#FFFFFF" stroke-width="2" stroke-linecap="round" stroke-linejoin="round" stroke-dasharray="0,3.6" points="
					8,31.6 8,44 8,44.2 				"/>
				
					<line fill="none" stroke="#FFFFFF" stroke-width="2" stroke-linecap="round" stroke-linejoin="round" x1="8" y1="46" x2="8" y2="46"/>
			</g>
		</g>
		<g>
			<g>
				
					<line fill="none" stroke="#FFFFFF" stroke-width="2" stroke-linecap="round" stroke-linejoin="round" x1="58" y1="28" x2="58" y2="28"/>
				
					<polyline fill="none" stroke="#FFFFFF" stroke-width="2" stroke-linecap="round" stroke-linejoin="round" stroke-dasharray="0,3.6" points="
					58,31.6 58,44 58,44.2 				"/>
				
					<line fill="none" stroke="#FFFFFF" stroke-width="2" stroke-linecap="round" stroke-linejoin="round" x1="58" y1="46" x2="58" y2="46"/>
			</g>
		</g>
		<g>
			<g>
				
					<line fill="none" stroke="#FFFFFF" stroke-width="2" stroke-linecap="round" stroke-linejoin="round" x1="16" y1="55" x2="16" y2="55"/>
				
					<polyline fill="none" stroke="#FFFFFF" stroke-width="2" stroke-linecap="round" stroke-linejoin="round" stroke-dasharray="0,3.7778" points="
					19.778,55 48,55 48.111,55 				"/>
				
					<line fill="none" stroke="#FFFFFF" stroke-width="2" stroke-linecap="round" stroke-linejoin="round" x1="50" y1="55" x2="50" y2="55"/>
			</g>
		</g>
		<path fill="none" stroke="#FFFFFF" stroke-width="2" stroke-linecap="round" stroke-linejoin="round" stroke-miterlimit="10" d="
			M58,59H8c-2.209,0-4-1.791-4-4V19c0-2.209,1.791-4,4-4h50c2.209,0,4,1.791,4,4v36C62,57.209,60.209,59,58,59z"/>
		<path fill="none" stroke="#FFFFFF" stroke-width="2" stroke-linecap="round" stroke-linejoin="round" stroke-miterlimit="10" d="
			M25,15L25,15c0-4.418,3.582-8,8-8l0,0c4.418,0,8,3.582,8,8l0,0"/>
	</g>
</g>
<g id="Слой_10" display="none">
	<g display="inline">
		<path fill="none" stroke="#FFFFFF" stroke-width="2" stroke-linecap="round" stroke-linejoin="round" stroke-miterlimit="10" d="
			M48.995,52.211C47.545,49.365,44.531,46.51,40,45c-3-1-2-4-2-6.917C42,42,43,37,47,39c-3.667-5.833-3.162-8.97-4-14
			c-0.583-3.5-2.929-9-10-9s-9.417,5.5-10,9c-0.838,5.03-0.333,8.167-4,14c4-2,5,3,9-0.917C28,41,29,44,26,45
			c-4.531,1.51-7.545,4.365-8.995,7.211"/>
		<circle fill="none" stroke="#FFFFFF" stroke-width="2" stroke-miterlimit="10" cx="33" cy="33" r="25"/>
	</g>
</g>
<g id="Слой_11" display="none">
	<g display="inline">
		
			<line fill="none" stroke="#FFFFFF" stroke-width="2" stroke-linecap="round" stroke-linejoin="round" stroke-miterlimit="10" x1="30" y1="18.605" x2="36" y2="18.605"/>
		
			<line fill="none" stroke="#FFFFFF" stroke-width="2" stroke-linecap="round" stroke-linejoin="round" stroke-miterlimit="10" x1="24" y1="24.605" x2="42" y2="24.605"/>
		
			<line fill="none" stroke="#FFFFFF" stroke-width="2" stroke-linecap="round" stroke-linejoin="round" stroke-miterlimit="10" x1="24" y1="30.605" x2="42" y2="30.605"/>
		
			<polyline fill="none" stroke="#FFFFFF" stroke-width="2" stroke-linecap="round" stroke-linejoin="round" stroke-miterlimit="10" points="
			16,34.605 16,6.605 44,6.605 50,12.605 50,34.605 		"/>
		
			<polyline fill="none" stroke="#FFFFFF" stroke-width="2" stroke-linecap="round" stroke-linejoin="round" stroke-miterlimit="10" points="
			44,6.605 44,12.605 50,12.605 		"/>
		<path fill="none" stroke="#FFFFFF" stroke-width="2" stroke-linecap="round" stroke-linejoin="round" stroke-miterlimit="10" d="
			M12,24.605h-1l-7,13v19c0,1.104,0.895,2,2,2h54c1.105,0,2-0.896,2-2v-19l-7-13h-1"/>
		<path fill="none" stroke="#FFFFFF" stroke-width="2" stroke-linecap="round" stroke-linejoin="round" stroke-miterlimit="10" d="
			M4,38.605h18v6c0,1.105,0.895,2,2,2h18c1.105,0,2-0.895,2-2v-6h18"/>
	</g>
</g>
<g id="Слой_12" display="none">
	<g display="inline">
		<path fill="none" stroke="#FFFFFF" stroke-width="2" stroke-linecap="round" stroke-linejoin="round" stroke-miterlimit="10" d="
			M47.5,49.022c3.479,1.059,6.621,2.78,8.647,4.528c1.435,1.239,0.818,3.581-1.04,3.958c-4.348,0.883-12.152,2.1-22.115,2.097
			c-10.136-0.003-17.733-1.191-21.978-2.072c-1.861-0.387-2.456-2.747-1.001-3.972c2.054-1.729,5.137-3.377,8.57-4.456"/>
		<path fill="none" stroke="#FFFFFF" stroke-width="2" stroke-linecap="round" stroke-linejoin="round" stroke-miterlimit="10" d="
			M18,28.259c0-4.779,6.716-8.654,15-8.654s15,3.875,15,8.654"/>
		<path fill="none" stroke="#FFFFFF" stroke-width="2" stroke-linecap="round" stroke-linejoin="round" stroke-miterlimit="10" d="
			M21.821,17.997c3.137-1.504,7-2.391,11.179-2.391c10.493,0,19,5.596,19,12.5"/>
		<path fill="none" stroke="#FFFFFF" stroke-width="2" stroke-linecap="round" stroke-linejoin="round" stroke-miterlimit="10" d="
			M14,28.105c0-3.316,1.962-6.33,5.164-8.567"/>
		<path fill="none" stroke="#FFFFFF" stroke-width="2" stroke-linecap="round" stroke-linejoin="round" stroke-miterlimit="10" d="
			M14,31.105c0,5.799,8.507,10.5,19,10.5s19-4.701,19-10.5"/>
		<path fill="none" stroke="#FFFFFF" stroke-width="2" stroke-linecap="round" stroke-linejoin="round" stroke-miterlimit="10" d="
			M52,24.605c0-10.493-8.507-19-19-19s-19,8.507-19,19c0,2.918,0,5.389,0,8c0,9.389,8.507,17,19,17s19-7.611,19-17
			C52,29.994,52,27.524,52,24.605z"/>
		<path fill="none" stroke="#FFFFFF" stroke-width="2" stroke-linecap="round" stroke-linejoin="round" stroke-miterlimit="10" d="
			M24.439,53.187c2.432,0.882,5.385,1.419,8.561,1.419c8.25,0,15-3.626,15-7.5v-3.8"/>
		<path fill="none" stroke="#FFFFFF" stroke-width="2" stroke-linecap="round" stroke-linejoin="round" stroke-miterlimit="10" d="
			M18,43.306v3.8c0,1.64,1.21,3.236,3.231,4.53"/>
		
			<line fill="none" stroke="#FFFFFF" stroke-width="2" stroke-linecap="round" stroke-linejoin="round" stroke-miterlimit="10" x1="27.875" y1="28.805" x2="28.074" y2="28.805"/>
		
			<line fill="none" stroke="#FFFFFF" stroke-width="2" stroke-linecap="round" stroke-linejoin="round" stroke-miterlimit="10" x1="37.881" y1="28.805" x2="38.081" y2="28.805"/>
		
			<line fill="none" stroke="#FFFFFF" stroke-width="2" stroke-linecap="round" stroke-linejoin="round" stroke-miterlimit="10" x1="25.501" y1="27.605" x2="30.375" y2="27.605"/>
		
			<line fill="none" stroke="#FFFFFF" stroke-width="2" stroke-linecap="round" stroke-linejoin="round" stroke-miterlimit="10" x1="40.526" y1="27.605" x2="35.652" y2="27.605"/>
		
			<ellipse fill="none" stroke="#FFFFFF" stroke-width="2" stroke-linecap="round" stroke-linejoin="round" stroke-miterlimit="10" cx="34.5" cy="37.605" rx="1.5" ry="1"/>
		<path fill="none" stroke="#FFFFFF" stroke-width="2" stroke-linecap="round" stroke-linejoin="round" stroke-miterlimit="10" d="
			M48,33.605c-2,2-6.833,4-10,4h-2.2"/>
	</g>
</g>
<g id="Слой_13">
	<g>
		
			<circle fill="none" stroke="#FFFFFF" stroke-width="2" stroke-linecap="round" stroke-linejoin="round" stroke-miterlimit="10" cx="33" cy="38" r="23"/>
		
			<circle fill="none" stroke="#FFFFFF" stroke-width="2" stroke-linecap="round" stroke-linejoin="round" stroke-miterlimit="10" cx="33" cy="38" r="19"/>
		
			<circle fill="none" stroke="#FFFFFF" stroke-width="2" stroke-linecap="round" stroke-linejoin="round" stroke-miterlimit="10" cx="33" cy="9" r="6"/>
		
			<circle fill="none" stroke="#FFFFFF" stroke-width="2" stroke-linecap="round" stroke-linejoin="round" stroke-miterlimit="10" cx="33" cy="39" r="2"/>
		
			<line fill="none" stroke="#FFFFFF" stroke-width="2" stroke-linecap="round" stroke-linejoin="round" stroke-miterlimit="10" x1="33" y1="27" x2="33" y2="43"/>
		
			<line fill="none" stroke="#FFFFFF" stroke-width="2" stroke-linecap="round" stroke-linejoin="round" stroke-miterlimit="10" x1="33" y1="23" x2="33" y2="23"/>
		
			<line fill="none" stroke="#FFFFFF" stroke-width="2" stroke-linecap="round" stroke-linejoin="round" stroke-miterlimit="10" x1="33" y1="53" x2="33" y2="53"/>
		
			<line fill="none" stroke="#FFFFFF" stroke-width="2" stroke-linecap="round" stroke-linejoin="round" stroke-miterlimit="10" x1="48" y1="38" x2="48" y2="38"/>
		
			<line fill="none" stroke="#FFFFFF" stroke-width="2" stroke-linecap="round" stroke-linejoin="round" stroke-miterlimit="10" x1="18" y1="38" x2="18" y2="38"/>
		
			<line fill="none" stroke="#FFFFFF" stroke-width="2" stroke-linecap="round" stroke-linejoin="round" stroke-miterlimit="10" x1="25.5" y1="25.01" x2="25.5" y2="25.01"/>
		
			<line fill="none" stroke="#FFFFFF" stroke-width="2" stroke-linecap="round" stroke-linejoin="round" stroke-miterlimit="10" x1="40.5" y1="50.99" x2="40.5" y2="50.99"/>
		
			<line fill="none" stroke="#FFFFFF" stroke-width="2" stroke-linecap="round" stroke-linejoin="round" stroke-miterlimit="10" x1="45.99" y1="30.5" x2="45.99" y2="30.5"/>
		
			<line fill="none" stroke="#FFFFFF" stroke-width="2" stroke-linecap="round" stroke-linejoin="round" stroke-miterlimit="10" x1="20.01" y1="45.5" x2="20.01" y2="45.5"/>
		
			<line fill="none" stroke="#FFFFFF" stroke-width="2" stroke-linecap="round" stroke-linejoin="round" stroke-miterlimit="10" x1="20.01" y1="30.5" x2="20.01" y2="30.5"/>
		
			<line fill="none" stroke="#FFFFFF" stroke-width="2" stroke-linecap="round" stroke-linejoin="round" stroke-miterlimit="10" x1="45.99" y1="45.5" x2="45.99" y2="45.5"/>
		
			<line fill="none" stroke="#FFFFFF" stroke-width="2" stroke-linecap="round" stroke-linejoin="round" stroke-miterlimit="10" x1="40.5" y1="25.01" x2="40.5" y2="25.01"/>
		
			<line fill="none" stroke="#FFFFFF" stroke-width="2" stroke-linecap="round" stroke-linejoin="round" stroke-miterlimit="10" x1="25.5" y1="50.99" x2="25.5" y2="50.99"/>
		
			<polyline fill="none" stroke="#FFFFFF" stroke-width="2" stroke-linecap="round" stroke-linejoin="round" stroke-miterlimit="10" points="
			32,15 32,10 34,10 34,15 		"/>
		
			<rect x="52.793" y="15.672" transform="matrix(0.7071 -0.7071 0.7071 0.7071 2.5883 43.2487)" fill="none" stroke="#FFFFFF" stroke-width="2" stroke-linecap="round" stroke-linejoin="round" stroke-miterlimit="10" width="1.414" height="5.657"/>
		
			<line fill="none" stroke="#FFFFFF" stroke-width="2" stroke-linecap="round" stroke-linejoin="round" stroke-miterlimit="10" x1="53" y1="19" x2="49.729" y2="22.271"/>
		
			<rect x="11.522" y="15.672" transform="matrix(-0.7071 -0.7071 0.7071 -0.7071 7.7951 40.2288)" fill="none" stroke="#FFFFFF" stroke-width="2" stroke-linecap="round" stroke-linejoin="round" stroke-miterlimit="10" width="1.414" height="5.657"/>
		
			<line fill="none" stroke="#FFFFFF" stroke-width="2" stroke-linecap="round" stroke-linejoin="round" stroke-miterlimit="10" x1="12.729" y1="19" x2="16" y2="22.271"/>
	</g>
</g>
</svg>
