<svg version="1.1" id="Слой_1" xmlns="http://www.w3.org/2000/svg" xmlns:xlink="http://www.w3.org/1999/xlink" x="0px" y="0px"
	 width="70px" height="70px" viewBox="0 0 70 70" enable-background="new 0 0 70 70" xml:space="preserve">
<g>
	<path d="M63.049,39h-1.05V25.623c0-1.446-1.177-2.623-2.623-2.623H28.593c-0.705,0-1.389,0.289-1.875,0.793
		c-0.487,0.503-0.742,1.165-0.719,1.83V39h-1c-1.084,0-2,0.879-2,1.92V58v2v2.411c-2.928-1.19-5-4.061-5-7.411v-1h-1V21h10V5h-22v16
		h6v6c0,0.553,0.447,1,1,1s1-0.447,1-1v-6h2v33h-1v1c0,4.411-3.589,8-8,8c-0.553,0-1,0.447-1,1s0.447,1,1,1h17h3h3v-5h30v5h6v-5v-2
		V40.92C64.999,39.861,64.124,39,63.049,39z M11.994,63c2.18-1.638,3.671-4.144,3.956-7h0.1c0.285,2.856,1.776,5.362,3.956,7H11.994
		z M62.999,58h-4h-30h-4V41h1h4v3h28v-3h4v-0.064l1-0.016V58z"/>
	<rect x="29.999" y="46" width="28" height="6"/>
</g>
</svg>
