<svg version="1.1" id="Слой_1" xmlns="http://www.w3.org/2000/svg" xmlns:xlink="http://www.w3.org/1999/xlink" x="0px" y="0px"
	 width="70px" height="70px" viewBox="0 0 70 70" enable-background="new 0 0 70 70" xml:space="preserve">
<path d="M61.999,18.993c0-0.016-0.006-0.03-0.007-0.046c-0.004-0.074-0.013-0.146-0.032-0.216c-0.009-0.03-0.023-0.057-0.035-0.086
	c-0.021-0.054-0.041-0.106-0.071-0.155c-0.018-0.03-0.041-0.056-0.061-0.083c-0.032-0.043-0.065-0.085-0.103-0.122
	c-0.026-0.025-0.056-0.047-0.085-0.069c-0.027-0.021-0.05-0.046-0.079-0.065c-0.017-0.01-0.036-0.015-0.053-0.024
	c-0.014-0.008-0.025-0.019-0.04-0.026l-27-13c-0.284-0.137-0.616-0.132-0.895,0.014l-25,13c-0.011,0.006-0.018,0.015-0.029,0.021
	c-0.011,0.006-0.024,0.009-0.036,0.016c-0.034,0.021-0.06,0.049-0.091,0.074c-0.029,0.023-0.06,0.044-0.087,0.07
	c-0.038,0.038-0.068,0.08-0.099,0.123c-0.02,0.028-0.044,0.053-0.061,0.083c-0.031,0.053-0.052,0.11-0.072,0.168
	c-0.009,0.025-0.022,0.047-0.029,0.073C8.012,18.824,7.999,18.911,7.999,19v32c0,0.379,0.214,0.725,0.553,0.895l26,13
	c0.015,0.007,0.031,0.004,0.046,0.011C34.727,64.962,34.862,65,34.999,65s0.273-0.038,0.401-0.095
	c0.015-0.007,0.032-0.004,0.046-0.011l26-13c0.339-0.169,0.553-0.516,0.553-0.895V19c0-0.001,0-0.002,0-0.004
	C61.999,18.995,61.999,18.994,61.999,18.993z M11.999,48c-0.552,0-1-0.448-1-1c0-0.552,0.448-1,1-1s1,0.448,1,1
	C12.999,47.552,12.552,48,11.999,48z M11.999,42c-0.552,0-1-0.448-1-1c0-0.552,0.448-1,1-1s1,0.448,1,1
	C12.999,41.552,12.552,42,11.999,42z M11.999,36c-0.552,0-1-0.448-1-1c0-0.552,0.448-1,1-1s1,0.448,1,1
	C12.999,35.552,12.552,36,11.999,36z M11.999,30c-0.552,0-1-0.448-1-1c0-0.552,0.448-1,1-1s1,0.448,1,1
	C12.999,29.552,12.552,30,11.999,30z M11.999,24c-0.552,0-1-0.448-1-1c0-0.552,0.448-1,1-1s1,0.448,1,1
	C12.999,23.552,12.552,24,11.999,24z M14.999,51c-0.552,0-1-0.448-1-1c0-0.552,0.448-1,1-1s1,0.448,1,1
	C15.999,50.552,15.552,51,14.999,51z M14.999,45c-0.552,0-1-0.448-1-1c0-0.552,0.448-1,1-1s1,0.448,1,1
	C15.999,44.552,15.552,45,14.999,45z M14.999,39c-0.552,0-1-0.448-1-1c0-0.552,0.448-1,1-1s1,0.448,1,1
	C15.999,38.552,15.552,39,14.999,39z M14.999,33c-0.552,0-1-0.448-1-1c0-0.552,0.448-1,1-1s1,0.448,1,1
	C15.999,32.552,15.552,33,14.999,33z M14.999,27c-0.552,0-1-0.448-1-1c0-0.552,0.448-1,1-1s1,0.448,1,1
	C15.999,26.552,15.552,27,14.999,27z M17.999,54c-0.552,0-1-0.448-1-1c0-0.552,0.448-1,1-1s1,0.448,1,1
	C18.999,53.552,18.552,54,17.999,54z M17.999,48c-0.552,0-1-0.448-1-1c0-0.552,0.448-1,1-1s1,0.448,1,1
	C18.999,47.552,18.552,48,17.999,48z M17.999,42c-0.552,0-1-0.448-1-1c0-0.552,0.448-1,1-1s1,0.448,1,1
	C18.999,41.552,18.552,42,17.999,42z M17.999,36c-0.552,0-1-0.448-1-1c0-0.552,0.448-1,1-1s1,0.448,1,1
	C18.999,35.552,18.552,36,17.999,36z M17.999,30c-0.552,0-1-0.448-1-1c0-0.552,0.448-1,1-1s1,0.448,1,1
	C18.999,29.552,18.552,30,17.999,30z M20.999,57c-0.552,0-1-0.448-1-1c0-0.552,0.448-1,1-1s1,0.448,1,1
	C21.999,56.552,21.552,57,20.999,57z M20.999,51c-0.552,0-1-0.448-1-1c0-0.552,0.448-1,1-1s1,0.448,1,1
	C21.999,50.552,21.552,51,20.999,51z M20.999,45c-0.552,0-1-0.448-1-1c0-0.552,0.448-1,1-1s1,0.448,1,1
	C21.999,44.552,21.552,45,20.999,45z M20.999,39c-0.552,0-1-0.448-1-1c0-0.552,0.448-1,1-1s1,0.448,1,1
	C21.999,38.552,21.552,39,20.999,39z M20.999,33c-0.552,0-1-0.448-1-1c0-0.552,0.448-1,1-1s1,0.448,1,1
	C21.999,32.552,21.552,33,20.999,33z M21.825,26.531L21.825,26.531L21.825,26.531c-0.071,0.11-0.159,0.201-0.267,0.276
	c-0.036,0.027-0.072,0.054-0.111,0.075c-0.04,0.02-0.079,0.037-0.122,0.052C21.223,26.973,21.116,27,20.999,27c-0.552,0-1-0.448-1-1
	c0-0.552,0.448-1,1-1s1,0.448,1,1C21.999,26.2,21.926,26.375,21.825,26.531z M23.999,54c-0.552,0-1-0.448-1-1c0-0.552,0.448-1,1-1
	s1,0.448,1,1C24.999,53.552,24.552,54,23.999,54z M23.999,48c-0.552,0-1-0.448-1-1c0-0.552,0.448-1,1-1s1,0.448,1,1
	C24.999,47.552,24.552,48,23.999,48z M23.999,42c-0.552,0-1-0.448-1-1c0-0.552,0.448-1,1-1s1,0.448,1,1
	C24.999,41.552,24.552,42,23.999,42z M23.999,36c-0.552,0-1-0.448-1-1c0-0.552,0.448-1,1-1s1,0.448,1,1
	C24.999,35.552,24.552,36,23.999,36z M23.999,30c-0.552,0-1-0.448-1-1c0-0.552,0.448-1,1-1s1,0.448,1,1
	C24.999,29.552,24.552,30,23.999,30z M26.999,57c-0.552,0-1-0.448-1-1c0-0.552,0.448-1,1-1s1,0.448,1,1
	C27.999,56.552,27.552,57,26.999,57z M26.999,51c-0.552,0-1-0.448-1-1c0-0.552,0.448-1,1-1s1,0.448,1,1
	C27.999,50.552,27.552,51,26.999,51z M26.999,45c-0.552,0-1-0.448-1-1c0-0.552,0.448-1,1-1s1,0.448,1,1
	C27.999,44.552,27.552,45,26.999,45z M26.999,39c-0.552,0-1-0.448-1-1c0-0.552,0.448-1,1-1s1,0.448,1,1
	C27.999,38.552,27.552,39,26.999,39z M26.999,33c-0.552,0-1-0.448-1-1c0-0.552,0.448-1,1-1s1,0.448,1,1
	C27.999,32.552,27.552,33,26.999,33z M29.999,60c-0.552,0-1-0.448-1-1c0-0.552,0.448-1,1-1s1,0.448,1,1
	C30.999,59.552,30.552,60,29.999,60z M29.999,54c-0.552,0-1-0.448-1-1c0-0.552,0.448-1,1-1s1,0.448,1,1
	C30.999,53.552,30.552,54,29.999,54z M29.999,48c-0.552,0-1-0.448-1-1c0-0.552,0.448-1,1-1s1,0.448,1,1
	C30.999,47.552,30.552,48,29.999,48z M29.999,42c-0.552,0-1-0.448-1-1c0-0.552,0.448-1,1-1s1,0.448,1,1
	C30.999,41.552,30.552,42,29.999,42z M29.999,36c-0.552,0-1-0.448-1-1c0-0.552,0.448-1,1-1s1,0.448,1,1
	C30.999,35.552,30.552,36,29.999,36z M32.999,63c-0.552,0-1-0.448-1-1c0-0.552,0.448-1,1-1s1,0.448,1,1
	C33.999,62.552,33.552,63,32.999,63z M32.999,57c-0.552,0-1-0.448-1-1c0-0.552,0.448-1,1-1s1,0.448,1,1
	C33.999,56.552,33.552,57,32.999,57z M32.999,51c-0.552,0-1-0.448-1-1c0-0.552,0.448-1,1-1s1,0.448,1,1
	C33.999,50.552,33.552,51,32.999,51z M32.999,45c-0.552,0-1-0.448-1-1c0-0.552,0.448-1,1-1s1,0.448,1,1
	C33.999,44.552,33.552,45,32.999,45z M32.999,39c-0.552,0-1-0.448-1-1c0-0.552,0.448-1,1-1s1,0.448,1,1
	C33.999,38.552,33.552,39,32.999,39z M33.825,32.531L33.825,32.531L33.825,32.531c-0.071,0.11-0.159,0.201-0.267,0.276
	c-0.036,0.027-0.072,0.054-0.111,0.075c-0.04,0.02-0.079,0.037-0.122,0.052C33.223,32.973,33.116,33,32.999,33c-0.552,0-1-0.448-1-1
	c0-0.552,0.448-1,1-1s1,0.448,1,1C33.999,32.2,33.926,32.375,33.825,32.531z M34.999,30.882L11.201,18.983L34.016,7.118
	l24.713,11.899L34.999,30.882z M59.999,50.382l-24,12V32.618l24-12V50.382z"/>
</svg>
