<?xml version="1.0" encoding="utf-8"?>
<!-- Generator: Adobe Illustrator 17.0.0, SVG Export Plug-In . SVG Version: 6.00 Build 0)  -->
<!DOCTYPE svg PUBLIC "-//W3C//DTD SVG 1.1//EN" "http://www.w3.org/Graphics/SVG/1.1/DTD/svg11.dtd">
<svg version="1.1" id="Слой_1" xmlns="http://www.w3.org/2000/svg" xmlns:xlink="http://www.w3.org/1999/xlink" x="0px" y="0px"
	 width="70px" height="70px" viewBox="0 0 70 70" enable-background="new 0 0 70 70" xml:space="preserve">
<g>
	<path d="M16.999,51c0-0.553-0.447-1-1-1h-1v-5h3V35h-8v10h3v5h-1c-0.553,0-1,0.447-1,1s0.447,1,1,1h-6v11h1v1c0,0.553,0.447,1,1,1
		s1-0.447,1-1v-1h10v1c0,0.553,0.447,1,1,1s1-0.447,1-1v-1h1V52h-6C16.552,52,16.999,51.553,16.999,51z"/>
	<path d="M25.999,5v58h2v1c0,0.553,0.447,1,1,1s1-0.447,1-1v-1h10h7h14v1c0,0.553,0.447,1,1,1s1-0.447,1-1v-1h1V51V38v-9V16V5
		H25.999z M35.999,25.414L37.585,27h-3.172L35.999,25.414z M27.999,20v-2h22v2H27.999z M51.999,18h10v9h-10V18z M49.999,7v9h-22V7
		H49.999z M39.999,61c-1.103,0-2-0.897-2-2s0.897-2,2-2h4c0.553,0,1-0.447,1-1s-0.447-1-1-1h-4c-2.206,0-4,1.794-4,4
		c0,0.732,0.212,1.409,0.556,2h-8.556V22h7v1.586l-3.706,3.706c-0.093,0.092-0.166,0.203-0.217,0.326
		c-0.101,0.244-0.101,0.52,0,0.764c0.101,0.245,0.296,0.44,0.541,0.541C31.74,28.974,31.869,29,31.999,29h8
		c0.13,0,0.26-0.026,0.382-0.077c0.245-0.101,0.44-0.296,0.541-0.541c0.101-0.244,0.101-0.519,0-0.764
		c-0.051-0.123-0.125-0.234-0.217-0.327l-3.706-3.706V22h13v7v9v13v10h-3H39.999z M51.999,40h10v9h-10V40z"/>
	<path d="M43.999,52h-7c-0.553,0-1,0.447-1,1s0.447,1,1,1h7c1.103,0,2,0.897,2,2s-0.897,2-2,2h-4c-0.553,0-1,0.447-1,1s0.447,1,1,1
		h4c2.206,0,4-1.794,4-4S46.205,52,43.999,52z"/>
</g>
</svg>
