<?xml version="1.0" encoding="utf-8"?>
<!-- Generator: Adobe Illustrator 17.0.0, SVG Export Plug-In . SVG Version: 6.00 Build 0)  -->
<!DOCTYPE svg PUBLIC "-//W3C//DTD SVG 1.1//EN" "http://www.w3.org/Graphics/SVG/1.1/DTD/svg11.dtd">
<svg version="1.1" id="Слой_1" xmlns="http://www.w3.org/2000/svg" xmlns:xlink="http://www.w3.org/1999/xlink" x="0px" y="0px"
	 width="70px" height="70px" viewBox="0 0 70 70" enable-background="new 0 0 70 70" xml:space="preserve">
<g>
	<path fill="#231E20" d="M7.269,59.683l-0.497,2.085c-0.016,0.067-0.02,0.135-0.022,0.202c0,0.013-0.004,0.025-0.004,0.038
		c0.001,0.114,0.026,0.225,0.065,0.332c0.009,0.025,0.019,0.047,0.03,0.071c0.049,0.107,0.11,0.21,0.196,0.296
		c0.095,0.095,0.207,0.168,0.328,0.218C7.487,62.975,7.616,63,7.745,63c0.077,0,0.155-0.009,0.231-0.027l2.086-0.497L7.269,59.683z"
		/>
	<path fill="#231E20" d="M59.364,10.381c-3.51-3.508-9.219-3.508-12.729,0L10.573,46.443c-0.017,0.017-0.027,0.038-0.042,0.055
		c-0.021,0.024-0.039,0.05-0.058,0.076c-0.053,0.074-0.094,0.153-0.125,0.239c-0.009,0.026-0.022,0.049-0.029,0.075
		c-0.003,0.01-0.009,0.02-0.012,0.03l-2.495,10.48l4.534,4.534l10.48-2.495c0.027-0.006,0.051-0.021,0.077-0.03
		c0.034-0.011,0.066-0.024,0.099-0.039c0.072-0.033,0.139-0.074,0.201-0.123c0.024-0.019,0.049-0.033,0.072-0.054
		c0.008-0.008,0.018-0.012,0.026-0.02l36.063-36.063C62.873,19.6,62.873,13.89,59.364,10.381z M23.904,55.742l0.354-3.183
		L46.636,30.18c0.391-0.391,0.391-1.023,0-1.414s-1.023-0.391-1.414,0L22.843,51.145l-4.773,0.53l0.53-4.773l22.38-22.378
		c0.391-0.391,0.391-1.023,0-1.414s-1.023-0.391-1.414,0l-22.38,22.378l-3.183,0.354l27.683-27.683l9.9,9.9L23.904,55.742z
		 M53,26.645l-9.9-9.9l1.414-1.414l9.9,9.9L53,26.645z M55.829,23.817l-9.9-9.9l1.415-1.415l9.9,9.9L55.829,23.817z"/>
</g>
</svg>
