<svg version="1.1" id="Слой_1" xmlns="http://www.w3.org/2000/svg" xmlns:xlink="http://www.w3.org/1999/xlink" x="0px" y="0px"
	 width="70px" height="70px" viewBox="0 0 70 70" enable-background="new 0 0 70 70" xml:space="preserve">
<g>
	<path d="M64.999,50h-5.727c0.024-0.081,0.055-0.158,0.072-0.242c0.192-0.968-0.124-1.944-0.845-2.612
		c-0.805-0.744-1.319-1.548-1.529-2.389L56.78,44h-1.781v-3v-0.142c1.72-0.447,3-1.999,3-3.858v-5h-3h-2h-3v5
		c0,1.859,1.28,3.411,3,3.858V41v3h-1.381l-0.189,0.758c-0.21,0.84-0.724,1.644-1.529,2.388c-0.721,0.668-1.038,1.645-0.845,2.611
		c0.017,0.084,0.048,0.162,0.072,0.243h-6.127v8h3.484l-2.403,5.606c-0.218,0.507,0.018,1.095,0.525,1.313
		C44.734,64.975,44.868,65,44.999,65c0.388,0,0.757-0.227,0.919-0.606L48.658,58H59.34l2.74,6.394C62.243,64.773,62.612,65,63,65
		c0.131,0,0.265-0.025,0.394-0.081c0.507-0.218,0.743-0.806,0.525-1.313L61.516,58h3.484V50z M54.999,34h1v3
		c0,0.739-0.403,1.386-1,1.731V34z M52.999,38.731c-0.597-0.346-1-0.992-1-1.731v-3h1V38.731z"/>
	<path d="M4.999,64h2c0,0.553,0.448,1,1,1s1-0.447,1-1h28c0,0.553,0.448,1,1,1s1-0.447,1-1h2V5h-36V64z M6.999,7h32v55h-32V7z"/>
	<path d="M21.999,8h-14v12v2v2v9v2v11v2v13h14h2h14V48v-2v-9v-2v-2V22v-2V8h-14H21.999z M9.999,26h1v7h-1V26z M17.999,51h-4
		c-0.552,0-1-0.447-1-1s0.448-1,1-1h4c0.552,0,1,0.447,1,1S18.552,51,17.999,51z M21.999,46h-12V35h1h2h1h2h3h3V46z M12.999,33v-7h1
		v7H12.999z M15.999,33v-7h1v7H15.999z M21.999,33h-3v-9h-3h-2h-1h-2h-1v-2h12V33z M31.999,51h-4c-0.552,0-1-0.447-1-1s0.448-1,1-1
		h4c0.552,0,1,0.447,1,1S32.552,51,31.999,51z M28.999,46v-7h1v7H28.999z M32.999,46h-1v-7h1V46z M35.999,46h-1v-7h1V46z M35.999,37
		h-1h-2h-1h-2h-3v9h-3V35h12V37z M35.999,20h-12V10h12V20z"/>
</g>
</svg>
